<svg width="709" height="280" viewBox="0 0 709 280" fill="none" xmlns="http://www.w3.org/2000/svg">
<path d="M28.4423 278V167.731H79.6387C92.2409 167.731 102.165 171.197 108.466 177.498C113.507 182.539 116.027 188.682 116.027 196.243V196.558C116.027 209.003 109.411 215.934 101.535 220.345C114.295 225.228 122.171 232.632 122.171 247.44V247.755C122.171 267.918 105.788 278 80.8989 278H28.4423ZM52.0714 212.311H74.4403C85.1521 212.311 91.9258 208.846 91.9258 200.654V200.339C91.9258 193.093 86.2548 188.997 76.0155 188.997H52.0714V212.311ZM52.0714 256.734H80.8989C91.6107 256.734 98.0694 252.953 98.0694 244.762V244.447C98.0694 237.043 92.5559 232.475 80.1113 232.475H52.0714V256.734ZM157.879 278V167.731H241.054V189.312H181.981V211.681H233.965V233.262H181.981V256.419H241.841V278H157.879ZM279.163 278V167.731H303.422V255.946H358.399V278H279.163ZM439.699 279.89C405.673 279.89 381.256 254.528 381.256 223.181V222.865C381.256 191.518 405.988 165.841 440.014 165.841C474.04 165.841 498.457 191.203 498.457 222.55V222.865C498.457 254.213 473.725 279.89 439.699 279.89ZM440.014 257.521C459.547 257.521 473.095 242.084 473.095 223.181V222.865C473.095 203.962 459.232 188.209 439.699 188.209C420.166 188.209 406.618 203.647 406.618 222.55V222.865C406.618 241.769 420.481 257.521 440.014 257.521ZM558.564 278.788L520.915 167.731H546.907L569.749 242.399L594.481 167.416H615.274L640.006 242.399L662.847 167.731H688.209L650.56 278.788H629.452L604.562 206.64L579.673 278.788H558.564Z" fill="#FF406C"/>
<path d="M311.818 98.7203C311.815 98.722 311.812 98.7231 311.809 98.7251C310.657 99.3236 310.157 100.706 310.661 101.903C311.166 103.104 312.509 103.713 313.745 103.302L348.586 91.7097L342.072 102.348C341.598 103.121 341.698 104.115 342.316 104.778C342.934 105.441 343.918 105.611 344.723 105.192L351.555 101.642C351.751 101.54 351.929 101.407 352.082 101.247L372.322 80.1044L397.301 67.0709C406.761 61.9713 405.665 58.0511 405.104 56.9714C404.669 56.1342 403.697 55.0116 401.536 54.418C399.344 53.8158 396.383 53.8638 392.485 54.565C391.184 54.7989 390.466 54.7791 389.705 54.7582C387.031 54.685 385.218 54.8643 376.212 59.5437L326.96 85.1392L307.859 75.2264C307.139 74.8526 306.282 74.8529 305.562 75.2275L302.343 76.9002C301.681 77.2445 301.207 77.8676 301.053 78.5981C300.9 79.329 301.082 80.0901 301.549 80.672L314.806 97.1845L311.818 98.7203Z" fill="#2B2F31"/>
<path d="M402.522 118.779H309.278C306.656 118.779 304.53 120.906 304.53 123.527C304.53 126.148 306.656 128.275 309.278 128.275H402.522C405.144 128.275 407.27 126.149 407.27 123.527C407.27 120.905 405.144 118.779 402.522 118.779Z" fill="#2B2F31"/>
<path d="M675.596 134.662C588.015 53.0576 472.843 7.54355 353.136 7.23124C233.429 6.91893 118.022 51.8314 30.0156 132.978" stroke="#2B2F31" stroke-width="5" stroke-linejoin="round"/>
</svg>
