<svg width="524" height="218" viewBox="0 0 524 218" fill="none" xmlns="http://www.w3.org/2000/svg">
<rect x="14.2412" y="33.6625" width="200.773" height="134.037" fill="black"/>
<mask id="path-2-inside-1_118_2523" fill="white">
<rect x="14.2412" y="159.216" width="200.773" height="45.2445" rx="4.52445"/>
</mask>
<rect x="14.2412" y="159.216" width="200.773" height="45.2445" rx="4.52445" fill="white" stroke="black" stroke-width="11.3111" mask="url(#path-2-inside-1_118_2523)"/>
<mask id="path-3-inside-2_118_2523" fill="white">
<path fill-rule="evenodd" clip-rule="evenodd" d="M33.4702 148.47H217.842C220.341 148.47 222.366 150.496 222.366 152.995V166.568C222.366 169.067 220.341 171.093 217.842 171.093H33.4702V148.47ZM33.4702 192.584H217.842C220.341 192.584 222.366 194.61 222.366 197.108V210.682C222.366 213.181 220.341 215.206 217.842 215.206H33.4702V192.584ZM20.7008 151.011C24.7492 149.334 29.0882 148.471 33.4701 148.471V171.069C32.0558 171.069 30.6554 171.347 29.3487 171.888C28.0421 172.43 26.8549 173.223 25.8548 174.223C24.8547 175.223 24.0614 176.41 23.5202 177.717C22.979 179.024 22.7004 180.424 22.7004 181.838C22.7004 183.253 22.979 184.653 23.5202 185.96C24.0614 187.266 24.8547 188.454 25.8548 189.454C26.8549 190.454 28.0421 191.247 29.3487 191.788C30.6554 192.33 32.0558 192.608 33.4701 192.608L33.4701 215.206C29.0882 215.206 24.7492 214.343 20.7008 212.666C16.6524 210.989 12.974 208.532 9.87551 205.433C6.77702 202.335 4.31916 198.656 2.64227 194.608C0.965381 190.559 0.102295 186.22 0.102295 181.838C0.102295 177.456 0.965379 173.117 2.64227 169.069C4.31916 165.021 6.77702 161.342 9.87551 158.244C12.974 155.145 16.6524 152.687 20.7008 151.011Z"/>
</mask>
<path fill-rule="evenodd" clip-rule="evenodd" d="M33.4702 148.47H217.842C220.341 148.47 222.366 150.496 222.366 152.995V166.568C222.366 169.067 220.341 171.093 217.842 171.093H33.4702V148.47ZM33.4702 192.584H217.842C220.341 192.584 222.366 194.61 222.366 197.108V210.682C222.366 213.181 220.341 215.206 217.842 215.206H33.4702V192.584ZM20.7008 151.011C24.7492 149.334 29.0882 148.471 33.4701 148.471V171.069C32.0558 171.069 30.6554 171.347 29.3487 171.888C28.0421 172.43 26.8549 173.223 25.8548 174.223C24.8547 175.223 24.0614 176.41 23.5202 177.717C22.979 179.024 22.7004 180.424 22.7004 181.838C22.7004 183.253 22.979 184.653 23.5202 185.96C24.0614 187.266 24.8547 188.454 25.8548 189.454C26.8549 190.454 28.0421 191.247 29.3487 191.788C30.6554 192.33 32.0558 192.608 33.4701 192.608L33.4701 215.206C29.0882 215.206 24.7492 214.343 20.7008 212.666C16.6524 210.989 12.974 208.532 9.87551 205.433C6.77702 202.335 4.31916 198.656 2.64227 194.608C0.965381 190.559 0.102295 186.22 0.102295 181.838C0.102295 177.456 0.965379 173.117 2.64227 169.069C4.31916 165.021 6.77702 161.342 9.87551 158.244C12.974 155.145 16.6524 152.687 20.7008 151.011Z" fill="#0094FF"/>
<path d="M33.4702 148.47V142.815H27.8147V148.47H33.4702ZM33.4702 171.093H27.8147V176.748H33.4702V171.093ZM33.4702 192.584V186.928H27.8147V192.584H33.4702ZM33.4702 215.206H27.8147V220.862H33.4702V215.206ZM33.4701 148.471H39.1257V142.815L33.4701 142.815L33.4701 148.471ZM20.7008 151.011L18.5365 145.785L18.5365 145.785L20.7008 151.011ZM33.4701 171.069V176.724H39.1257V171.069H33.4701ZM29.3487 171.888L27.1845 166.663L27.1844 166.663L29.3487 171.888ZM23.5202 177.717L28.7453 179.881L28.7453 179.881L23.5202 177.717ZM25.8548 189.454L29.8539 185.455L29.8539 185.455L25.8548 189.454ZM33.4701 192.608L39.1257 192.608L39.1257 186.953H33.4701V192.608ZM33.4701 215.206V220.862H39.1257L39.1257 215.206L33.4701 215.206ZM20.7008 212.666L22.8651 207.441L22.8651 207.441L20.7008 212.666ZM9.87551 205.433L13.8746 201.434L13.8746 201.434L9.87551 205.433ZM2.64227 194.608L-2.58279 196.772L2.64227 194.608ZM0.102295 181.838L-5.55327 181.838L0.102295 181.838ZM2.64227 169.069L7.86733 171.233L2.64227 169.069ZM9.87551 158.244L13.8746 162.243L13.8746 162.243L9.87551 158.244ZM217.842 142.815H33.4702V154.126H217.842V142.815ZM228.022 152.995C228.022 147.373 223.464 142.815 217.842 142.815V154.126C217.217 154.126 216.711 153.62 216.711 152.995H228.022ZM228.022 166.568V152.995H216.711V166.568H228.022ZM217.842 176.748C223.464 176.748 228.022 172.191 228.022 166.568H216.711C216.711 165.944 217.217 165.437 217.842 165.437V176.748ZM33.4702 176.748H217.842V165.437H33.4702V176.748ZM27.8147 148.47V171.093H39.1258V148.47H27.8147ZM217.842 186.928H33.4702V198.239H217.842V186.928ZM228.022 197.108C228.022 191.486 223.464 186.928 217.842 186.928V198.239C217.217 198.239 216.711 197.733 216.711 197.108H228.022ZM228.022 210.682V197.108H216.711V210.682H228.022ZM217.842 220.862C223.464 220.862 228.022 216.304 228.022 210.682H216.711C216.711 210.057 217.217 209.551 217.842 209.551V220.862ZM33.4702 220.862H217.842V209.551H33.4702V220.862ZM27.8147 192.584V215.206H39.1258V192.584H27.8147ZM33.4701 142.815C28.3455 142.815 23.2711 143.824 18.5365 145.785L22.8651 156.236C26.2273 154.843 29.8309 154.126 33.4701 154.126L33.4701 142.815ZM39.1257 171.069V148.471H27.8146V171.069H39.1257ZM31.513 177.114C32.1335 176.857 32.7985 176.724 33.4701 176.724V165.413C31.3131 165.413 29.1773 165.838 27.1845 166.663L31.513 177.114ZM29.8539 178.222C30.3288 177.747 30.8926 177.371 31.513 177.114L27.1844 166.663C25.1916 167.489 23.3809 168.699 21.8557 170.224L29.8539 178.222ZM28.7453 179.881C29.0023 179.261 29.379 178.697 29.8539 178.222L21.8557 170.224C20.3305 171.749 19.1206 173.56 18.2951 175.553L28.7453 179.881ZM28.356 181.838C28.356 181.167 28.4883 180.502 28.7453 179.881L18.2951 175.553C17.4697 177.546 17.0448 179.681 17.0448 181.838H28.356ZM28.7453 183.796C28.4883 183.175 28.356 182.51 28.356 181.838H17.0448C17.0448 183.995 17.4697 186.131 18.2951 188.124L28.7453 183.796ZM29.8539 185.455C29.379 184.98 29.0023 184.416 28.7453 183.796L18.2951 188.124C19.1206 190.117 20.3305 191.928 21.8557 193.453L29.8539 185.455ZM31.513 186.563C30.8926 186.306 30.3288 185.93 29.8539 185.455L21.8557 193.453C23.3809 194.978 25.1916 196.188 27.1845 197.013L31.513 186.563ZM33.4701 186.953C32.7985 186.953 32.1335 186.82 31.513 186.563L27.1845 197.013C29.1773 197.839 31.3131 198.264 33.4701 198.264V186.953ZM39.1257 215.206L39.1257 192.608L27.8146 192.608L27.8146 215.206L39.1257 215.206ZM18.5365 217.891C23.2711 219.852 28.3455 220.862 33.4701 220.862V209.551C29.8309 209.551 26.2273 208.834 22.8651 207.441L18.5365 217.891ZM5.87642 209.432C9.50008 213.056 13.802 215.93 18.5365 217.891L22.8651 207.441C19.5029 206.049 16.4479 204.007 13.8746 201.434L5.87642 209.432ZM-2.58279 196.772C-0.62168 201.507 2.25276 205.808 5.87643 209.432L13.8746 201.434C11.3013 198.861 9.26001 195.806 7.86734 192.443L-2.58279 196.772ZM-5.55327 181.838C-5.55327 186.963 -4.5439 192.037 -2.58279 196.772L7.86734 192.443C6.47466 189.081 5.75786 185.478 5.75786 181.838L-5.55327 181.838ZM-2.58279 166.905C-4.5439 171.639 -5.55327 176.714 -5.55327 181.838L5.75786 181.838C5.75786 178.199 6.47466 174.596 7.86733 171.233L-2.58279 166.905ZM5.87642 154.245C2.25276 157.868 -0.621683 162.17 -2.58279 166.905L7.86733 171.233C9.26001 167.871 11.3013 164.816 13.8746 162.243L5.87642 154.245ZM18.5365 145.785C13.802 147.747 9.50008 150.621 5.87642 154.245L13.8746 162.243C16.4479 159.67 19.5029 157.628 22.8651 156.236L18.5365 145.785Z" fill="black" mask="url(#path-3-inside-2_118_2523)"/>
<path fill-rule="evenodd" clip-rule="evenodd" d="M111.642 125.524C111.543 125.78 111.489 126.058 111.489 126.349C111.489 130.599 109.695 133.059 107.54 134.542C105.265 136.109 102.456 136.658 100.607 136.658C99.3418 136.658 98.3162 137.684 98.3162 138.949C98.3162 140.214 99.3418 141.24 100.607 141.24C103.149 141.24 106.926 140.528 110.139 138.316C111.524 137.362 112.782 136.141 113.779 134.623C114.777 136.141 116.035 137.362 117.42 138.316C120.633 140.528 124.41 141.24 126.952 141.24C128.217 141.24 129.243 140.214 129.243 138.949C129.243 137.684 128.217 136.658 126.952 136.658C125.103 136.658 122.294 136.109 120.019 134.542C117.864 133.059 116.07 130.599 116.07 126.349C116.07 126.058 116.016 125.78 115.917 125.524C115.219 125.691 114.501 125.776 113.779 125.776C113.058 125.776 112.34 125.691 111.642 125.524Z" fill="white"/>
<path d="M122.943 114.351H125.205V116.613C125.205 118.114 124.91 119.599 124.335 120.986C123.761 122.372 122.92 123.631 121.859 124.692C120.798 125.753 119.538 126.595 118.152 127.169C116.766 127.743 115.28 128.039 113.779 128.039C112.279 128.039 110.793 127.743 109.407 127.169C108.021 126.595 106.761 125.753 105.7 124.692C104.639 123.631 103.798 122.372 103.223 120.986C102.649 119.599 102.354 118.114 102.354 116.613L102.354 114.351H104.616L113.779 114.351H122.943Z" fill="white" stroke="black" stroke-width="4.52445"/>
<mask id="mask0_118_2523" style="mask-type:alpha" maskUnits="userSpaceOnUse" x="23" y="86" width="87" height="41">
<path d="M66.2441 123.521C55.1511 123.521 44.9551 118.819 37.4035 113.95C33.6509 111.531 30.6118 109.11 28.5154 107.297C28.1029 106.941 27.7275 106.608 27.3909 106.304C27.7275 106 28.1029 105.668 28.5154 105.311C30.6118 103.499 33.6509 101.078 37.4035 98.6584C44.9551 93.7899 55.1511 89.0869 66.2441 89.0869C77.3371 89.0869 87.5331 93.7899 95.0847 98.6584C98.8372 101.078 101.876 103.499 103.973 105.311C104.385 105.668 104.761 106 105.097 106.304C104.761 106.608 104.385 106.941 103.973 107.297C101.876 109.11 98.8372 111.531 95.0847 113.95C87.5331 118.819 77.3371 123.521 66.2441 123.521Z" fill="#D9D9D9" stroke="black" stroke-width="5.65557"/>
</mask>
<g mask="url(#mask0_118_2523)">
<path d="M66.2441 123.521C55.1511 123.521 44.9551 118.819 37.4035 113.95C33.6509 111.531 30.6118 109.11 28.5154 107.297C28.1029 106.941 27.7275 106.608 27.3909 106.304C27.7275 106 28.1029 105.668 28.5154 105.311C30.6118 103.499 33.6509 101.078 37.4035 98.6584C44.9551 93.7899 55.1511 89.0869 66.2441 89.0869C77.3371 89.0869 87.5331 93.7899 95.0847 98.6584C98.8372 101.078 101.876 103.499 103.973 105.311C104.385 105.668 104.761 106 105.097 106.304C104.761 106.608 104.385 106.941 103.973 107.297C101.876 109.11 98.8372 111.531 95.0847 113.95C87.5331 118.819 77.3371 123.521 66.2441 123.521Z" fill="white" stroke="black" stroke-width="5.65557"/>
<path d="M108.661 105.445C108.661 117.326 99.0294 126.958 87.1483 126.958C75.2672 126.958 65.6356 117.326 65.6356 105.445C65.6356 93.5641 75.2672 83.9325 87.1483 83.9325C99.0294 83.9325 108.661 93.5641 108.661 105.445Z" fill="#0094FF" stroke="black" stroke-width="5.65557"/>
<path d="M66.2441 123.521C55.1511 123.521 44.9551 118.819 37.4035 113.95C33.6509 111.531 30.6118 109.11 28.5154 107.297C28.1029 106.941 27.7275 106.608 27.3909 106.304C27.7275 106 28.1029 105.668 28.5154 105.311C30.6118 103.499 33.6509 101.078 37.4035 98.6584C44.9551 93.7899 55.1511 89.0869 66.2441 89.0869C77.3371 89.0869 87.5331 93.7899 95.0847 98.6584C98.8372 101.078 101.876 103.499 103.973 105.311C104.385 105.668 104.761 106 105.097 106.304C104.761 106.608 104.385 106.941 103.973 107.297C101.876 109.11 98.8372 111.531 95.0847 113.95C87.5331 118.819 77.3371 123.521 66.2441 123.521Z" stroke="black" stroke-width="5.65557"/>
</g>
<mask id="mask1_118_2523" style="mask-type:alpha" maskUnits="userSpaceOnUse" x="118" y="86" width="87" height="41">
<path d="M161.315 123.521C150.222 123.521 140.026 118.818 132.475 113.95C128.722 111.531 125.683 109.11 123.586 107.297C123.174 106.94 122.799 106.608 122.462 106.304C122.799 106 123.174 105.668 123.586 105.311C125.683 103.499 128.722 101.077 132.475 98.6582C140.026 93.7898 150.222 89.0868 161.315 89.0868C172.408 89.0868 182.604 93.7898 190.156 98.6582C193.908 101.077 196.947 103.499 199.044 105.311C199.456 105.668 199.832 106 200.168 106.304C199.832 106.608 199.456 106.94 199.044 107.297C196.947 109.11 193.908 111.531 190.156 113.95C182.604 118.818 172.408 123.521 161.315 123.521Z" fill="#D9D9D9" stroke="black" stroke-width="5.65557"/>
</mask>
<g mask="url(#mask1_118_2523)">
<path d="M161.315 126.349C137.592 126.349 118.361 106.304 118.361 106.304C118.361 106.304 137.592 86.259 161.315 86.259C185.038 86.259 204.269 106.304 204.269 106.304C204.269 106.304 185.038 126.349 161.315 126.349Z" fill="white"/>
<path d="M203.732 105.445C203.732 117.326 194.1 126.958 182.219 126.958C170.338 126.958 160.707 117.326 160.707 105.445C160.707 93.5639 170.338 83.9324 182.219 83.9324C194.1 83.9324 203.732 93.5639 203.732 105.445Z" fill="#0094FF" stroke="black" stroke-width="5.65557"/>
<path d="M161.315 123.521C150.222 123.521 140.026 118.818 132.475 113.95C128.722 111.531 125.683 109.11 123.586 107.297C123.174 106.94 122.799 106.608 122.462 106.304C122.799 106 123.174 105.668 123.586 105.311C125.683 103.499 128.722 101.077 132.475 98.6582C140.026 93.7898 150.222 89.0868 161.315 89.0868C172.408 89.0868 182.604 93.7898 190.156 98.6582C193.908 101.077 196.947 103.499 199.044 105.311C199.456 105.668 199.832 106 200.168 106.304C199.832 106.608 199.456 106.94 199.044 107.297C196.947 109.11 193.908 111.531 190.156 113.95C182.604 118.818 172.408 123.521 161.315 123.521Z" stroke="black" stroke-width="5.65557"/>
</g>
<path d="M80.5615 152.121C80.5615 166.355 69.0229 177.894 54.7893 177.894C40.5557 177.894 29.0171 166.355 29.0171 152.121C29.0171 137.888 40.5557 126.349 54.7893 126.349C69.0229 126.349 80.5615 137.888 80.5615 152.121Z" fill="white"/>
<path fill-rule="evenodd" clip-rule="evenodd" d="M54.7893 173.369C66.5241 173.369 76.0371 163.856 76.0371 152.121C76.0371 140.387 66.5241 130.874 54.7893 130.874C43.0545 130.874 33.5415 140.387 33.5415 152.121C33.5415 163.856 43.0545 173.369 54.7893 173.369ZM54.7893 177.894C69.0229 177.894 80.5615 166.355 80.5615 152.121C80.5615 137.888 69.0229 126.349 54.7893 126.349C40.5557 126.349 29.0171 137.888 29.0171 152.121C29.0171 166.355 40.5557 177.894 54.7893 177.894Z" fill="black"/>
<path fill-rule="evenodd" clip-rule="evenodd" d="M74.4996 156.46C75.8 160.944 75.9374 166.149 73.5667 169.7L69.8039 167.188C71.0772 165.28 71.3092 161.703 70.1542 157.721C69.0203 153.811 66.7638 150.295 64.0995 148.592L66.5371 144.78C70.4291 147.269 73.1781 151.904 74.4996 156.46ZM55.9466 150.871C63.9825 161.241 59.9497 172.12 58.2972 175.93L54.1464 174.13C55.6851 170.582 58.7704 161.901 52.3703 153.642L55.9466 150.871Z" fill="black"/>
<path d="M146.997 152.121C146.997 166.355 158.536 177.894 172.769 177.894C187.003 177.894 198.542 166.355 198.542 152.121C198.542 137.888 187.003 126.349 172.769 126.349C158.536 126.349 146.997 137.888 146.997 152.121Z" fill="white"/>
<path fill-rule="evenodd" clip-rule="evenodd" d="M172.769 173.369C161.034 173.369 151.522 163.856 151.522 152.121C151.522 140.387 161.034 130.874 172.769 130.874C184.504 130.874 194.017 140.387 194.017 152.121C194.017 163.856 184.504 173.369 172.769 173.369ZM172.769 177.894C158.536 177.894 146.997 166.355 146.997 152.121C146.997 137.888 158.536 126.349 172.769 126.349C187.003 126.349 198.542 137.888 198.542 152.121C198.542 166.355 187.003 177.894 172.769 177.894Z" fill="black"/>
<path fill-rule="evenodd" clip-rule="evenodd" d="M153.06 156.46C151.76 160.944 151.622 166.149 153.993 169.7L157.756 167.188C156.482 165.28 156.25 161.703 157.405 157.721C158.539 153.811 160.796 150.295 163.46 148.592L161.023 144.78C157.13 147.269 154.381 151.904 153.06 156.46ZM171.613 150.871C163.577 161.241 167.61 172.12 169.262 175.93L173.413 174.13C171.875 170.582 168.789 161.901 175.189 153.642L171.613 150.871Z" fill="black"/>
<mask id="path-21-inside-3_118_2523" fill="white">
<rect x="12.5444" y="11.0403" width="202.469" height="58.2523" rx="4.52445"/>
</mask>
<rect x="12.5444" y="11.0403" width="202.469" height="58.2523" rx="4.52445" fill="white" stroke="black" stroke-width="11.3111" mask="url(#path-21-inside-3_118_2523)"/>
<mask id="path-22-inside-4_118_2523" fill="white">
<path fill-rule="evenodd" clip-rule="evenodd" d="M38.1625 1.99139C38.2008 1.99127 38.2391 1.99121 38.2774 1.99121V1.99139H217.842C220.341 1.99139 222.366 4.01705 222.366 6.51584V20.0892C222.366 22.588 220.341 24.6137 217.842 24.6137H37.0508C35.3577 24.746 33.6931 25.1516 32.1195 25.8179C30.1672 26.6445 28.3934 27.8561 26.8991 29.3836C25.4049 30.911 24.2197 32.7243 23.411 34.7199C22.6023 36.7156 22.1861 38.8545 22.1861 41.0146C22.1861 43.1747 22.6023 45.3137 23.411 47.3093C24.2197 49.305 25.4049 51.1183 26.8991 52.6457C28.3934 54.1731 30.1672 55.3847 32.1195 56.2114C33.6939 56.878 35.3593 57.2837 37.0533 57.4158H217.842C220.341 57.4158 222.366 59.4415 222.366 61.9403V75.5136C222.366 78.0124 220.341 80.0381 217.842 80.0381H33.4702V79.7274C30.1089 79.2913 26.812 78.3986 23.6684 77.0676C19.0368 75.1065 14.8284 72.232 11.2835 68.6084C7.73864 64.9847 4.92668 60.6828 3.0082 55.9482C1.08972 51.2137 0.102295 46.1393 0.102295 41.0146C0.102294 35.89 1.08972 30.8156 3.0082 26.081C4.92668 21.3465 7.73863 17.0446 11.2835 13.4209C14.8284 9.79725 19.0368 6.9228 23.6684 4.96169C26.812 3.63062 30.1088 2.738 33.4702 2.30184V1.99139H38.1625Z"/>
</mask>
<path fill-rule="evenodd" clip-rule="evenodd" d="M38.1625 1.99139C38.2008 1.99127 38.2391 1.99121 38.2774 1.99121V1.99139H217.842C220.341 1.99139 222.366 4.01705 222.366 6.51584V20.0892C222.366 22.588 220.341 24.6137 217.842 24.6137H37.0508C35.3577 24.746 33.6931 25.1516 32.1195 25.8179C30.1672 26.6445 28.3934 27.8561 26.8991 29.3836C25.4049 30.911 24.2197 32.7243 23.411 34.7199C22.6023 36.7156 22.1861 38.8545 22.1861 41.0146C22.1861 43.1747 22.6023 45.3137 23.411 47.3093C24.2197 49.305 25.4049 51.1183 26.8991 52.6457C28.3934 54.1731 30.1672 55.3847 32.1195 56.2114C33.6939 56.878 35.3593 57.2837 37.0533 57.4158H217.842C220.341 57.4158 222.366 59.4415 222.366 61.9403V75.5136C222.366 78.0124 220.341 80.0381 217.842 80.0381H33.4702V79.7274C30.1089 79.2913 26.812 78.3986 23.6684 77.0676C19.0368 75.1065 14.8284 72.232 11.2835 68.6084C7.73864 64.9847 4.92668 60.6828 3.0082 55.9482C1.08972 51.2137 0.102295 46.1393 0.102295 41.0146C0.102294 35.89 1.08972 30.8156 3.0082 26.081C4.92668 21.3465 7.73863 17.0446 11.2835 13.4209C14.8284 9.79725 19.0368 6.9228 23.6684 4.96169C26.812 3.63062 30.1088 2.738 33.4702 2.30184V1.99139H38.1625Z" fill="#0094FF"/>
<path d="M38.2774 1.99121H43.9329V-3.66436L38.2774 -3.66436L38.2774 1.99121ZM38.1625 1.99139V7.64696H38.1712L38.1799 7.64693L38.1625 1.99139ZM38.2774 1.99139H32.6218V7.64696H38.2774V1.99139ZM37.0508 24.6137V18.9581H36.8302L36.6102 18.9753L37.0508 24.6137ZM32.1195 25.8179L29.9144 20.6099L29.9144 20.6099L32.1195 25.8179ZM26.8991 29.3836L22.8564 25.4286L22.8564 25.4286L26.8991 29.3836ZM23.411 34.7199L18.1694 32.596L18.1694 32.596L23.411 34.7199ZM23.411 47.3093L28.6526 45.1854L28.6526 45.1854L23.411 47.3093ZM26.8991 52.6457L30.9419 48.6908L30.9419 48.6908L26.8991 52.6457ZM32.1195 56.2114L34.3247 51.0034L34.3247 51.0034L32.1195 56.2114ZM37.0533 57.4158L36.6136 63.0542L36.8331 63.0714H37.0533V57.4158ZM33.4702 80.0381H27.8147V85.6936H33.4702V80.0381ZM33.4702 79.7274H39.1258V74.7583L34.198 74.1189L33.4702 79.7274ZM23.6684 77.0676L25.8736 71.8596L25.8735 71.8596L23.6684 77.0676ZM11.2835 68.6084L7.24073 72.5633L7.24073 72.5633L11.2835 68.6084ZM3.0082 55.9482L-2.23339 58.0722L-2.23339 58.0722L3.0082 55.9482ZM0.102295 41.0146L5.75786 41.0146L0.102295 41.0146ZM3.0082 26.081L-2.2334 23.9571L-2.2334 23.9571L3.0082 26.081ZM11.2835 13.4209L15.3263 17.3758L15.3263 17.3758L11.2835 13.4209ZM23.6684 4.96169L25.8735 10.1696L25.8735 10.1696L23.6684 4.96169ZM33.4702 2.30184L34.198 7.91039L39.1258 7.27098V2.30184H33.4702ZM33.4702 1.99139V-3.66418H27.8147V1.99139H33.4702ZM38.2774 -3.66436C38.2333 -3.66436 38.1892 -3.66429 38.1451 -3.66415L38.1799 7.64693C38.2124 7.64683 38.2449 7.64678 38.2774 7.64678L38.2774 -3.66436ZM43.9329 1.99139V1.99121H32.6218V1.99139H43.9329ZM217.842 -3.66418H38.2774V7.64696H217.842V-3.66418ZM228.022 6.51584C228.022 0.893568 223.464 -3.66418 217.842 -3.66418V7.64696C217.217 7.64696 216.711 7.14054 216.711 6.51584H228.022ZM228.022 20.0892V6.51584H216.711V20.0892H228.022ZM217.842 30.2692C223.464 30.2692 228.022 25.7115 228.022 20.0892H216.711C216.711 19.4645 217.217 18.9581 217.842 18.9581V30.2692ZM37.0508 30.2692H217.842V18.9581H37.0508V30.2692ZM34.3247 31.0258C35.338 30.5968 36.4069 30.3368 37.4914 30.252L36.6102 18.9753C34.3085 19.1551 32.0481 19.7065 29.9144 20.6099L34.3247 31.0258ZM30.9419 33.3385C31.9168 32.3419 33.0674 31.5582 34.3247 31.0258L29.9144 20.6099C27.2671 21.7308 24.8699 23.3704 22.8564 25.4286L30.9419 33.3385ZM28.6526 36.8439C29.1869 35.5253 29.9668 34.3353 30.9419 33.3385L22.8564 25.4286C20.8431 27.4867 19.2524 29.9232 18.1694 32.596L28.6526 36.8439ZM27.8417 41.0146C27.8417 39.5802 28.1182 38.1626 28.6526 36.8439L18.1694 32.596C17.0865 35.2686 16.5306 38.1289 16.5306 41.0146H27.8417ZM28.6526 45.1854C28.1182 43.8666 27.8417 42.4491 27.8417 41.0146H16.5306C16.5306 43.9004 17.0865 46.7607 18.1694 49.4333L28.6526 45.1854ZM30.9419 48.6908C29.9668 47.694 29.1869 46.5039 28.6526 45.1854L18.1694 49.4333C19.2524 52.1061 20.8431 54.5426 22.8564 56.6006L30.9419 48.6908ZM34.3247 51.0034C33.0674 50.4711 31.9168 49.6873 30.9419 48.6908L22.8564 56.6006C24.8699 58.6589 27.2671 60.2984 29.9144 61.4193L34.3247 51.0034ZM37.493 51.7774C36.4079 51.6927 35.3385 51.4327 34.3247 51.0034L29.9144 61.4193C32.0492 62.3232 34.3107 62.8747 36.6136 63.0542L37.493 51.7774ZM217.842 51.7602H37.0533V63.0714H217.842V51.7602ZM228.022 61.9403C228.022 56.318 223.464 51.7602 217.842 51.7602V63.0714C217.217 63.0714 216.711 62.565 216.711 61.9403H228.022ZM228.022 75.5136V61.9403H216.711V75.5136H228.022ZM217.842 85.6936C223.464 85.6936 228.022 81.1359 228.022 75.5136H216.711C216.711 74.8889 217.217 74.3825 217.842 74.3825V85.6936ZM33.4702 85.6936H217.842V74.3825H33.4702V85.6936ZM27.8147 79.7274V80.0381H39.1258V79.7274H27.8147ZM21.4633 82.2755C25.0785 83.8063 28.8723 84.8338 32.7425 85.336L34.198 74.1189C31.3454 73.7487 28.5455 72.991 25.8736 71.8596L21.4633 82.2755ZM7.24073 72.5633C11.3049 76.7178 16.1366 80.0201 21.4633 82.2755L25.8735 71.8596C21.9369 70.1928 18.3519 67.7462 15.3263 64.6534L7.24073 72.5633ZM-2.23339 58.0722C-0.0405378 63.4839 3.17676 68.409 7.24073 72.5633L15.3263 64.6534C12.3005 61.5604 9.8939 57.8817 8.2498 53.8243L-2.23339 58.0722ZM-5.55327 41.0146C-5.55327 46.8649 -4.42617 52.6607 -2.23339 58.0722L8.2498 53.8243C6.60562 49.7667 5.75786 45.4136 5.75786 41.0146L-5.55327 41.0146ZM-2.2334 23.9571C-4.42617 29.3685 -5.55327 35.1643 -5.55327 41.0146L5.75786 41.0146C5.75786 36.6157 6.60561 32.2626 8.24979 28.205L-2.2334 23.9571ZM7.24072 9.466C3.17676 13.6203 -0.0405415 18.5454 -2.2334 23.9571L8.24979 28.205C9.89389 24.1475 12.3005 20.4689 15.3263 17.3758L7.24072 9.466ZM21.4633 -0.246262C16.1366 2.00913 11.3049 5.31146 7.24072 9.466L15.3263 17.3758C18.3519 14.283 21.9369 11.8365 25.8735 10.1696L21.4633 -0.246262ZM32.7425 -3.30671C28.8723 -2.80454 25.0785 -1.77703 21.4633 -0.246262L25.8735 10.1696C28.5455 9.03828 31.3454 8.28053 34.198 7.91039L32.7425 -3.30671ZM27.8147 1.99139V2.30184H39.1258V1.99139H27.8147ZM38.1625 -3.66418H33.4702V7.64696H38.1625V-3.66418Z" fill="black" mask="url(#path-22-inside-4_118_2523)"/>
<mask id="path-24-inside-5_118_2523" fill="white">
<path fill-rule="evenodd" clip-rule="evenodd" d="M90.0258 30.269H50.4368V61.4849H50.4368V86.2593L70.2312 73.8721L90.0258 86.2593V61.4849L90.0258 30.269Z"/>
</mask>
<path fill-rule="evenodd" clip-rule="evenodd" d="M90.0258 30.269H50.4368V61.4849H50.4368V86.2593L70.2312 73.8721L90.0258 86.2593V61.4849L90.0258 30.269Z" fill="white"/>
<path d="M50.4368 30.269V24.6135H44.7812V30.269H50.4368ZM90.0258 30.269L95.6813 30.269L95.6813 24.6135H90.0258V30.269ZM50.4368 61.4849V67.1405H56.0924V61.4849H50.4368ZM50.4368 61.4849V55.8293H44.7812V61.4849H50.4368ZM50.4368 86.2593H44.7812V96.4702L53.4369 91.0535L50.4368 86.2593ZM70.2312 73.8721L73.2314 69.0779L70.2312 67.2004L67.2311 69.0779L70.2312 73.8721ZM90.0258 86.2593L87.0256 91.0535L95.6813 96.4702V86.2593H90.0258ZM90.0258 61.4849L95.6813 61.4849L95.6813 61.4849L90.0258 61.4849ZM50.4368 35.9246H90.0258V24.6135H50.4368V35.9246ZM56.0924 61.4849V30.269H44.7812V61.4849H56.0924ZM50.4368 55.8293H50.4368V67.1405H50.4368V55.8293ZM44.7812 61.4849V86.2593H56.0923V61.4849H44.7812ZM53.4369 91.0535L73.2314 78.6663L67.2311 69.0779L47.4366 81.4651L53.4369 91.0535ZM67.2311 78.6663L87.0256 91.0535L93.0259 81.4651L73.2314 69.0779L67.2311 78.6663ZM95.6813 86.2593V61.4849H84.3702V86.2593H95.6813ZM84.3702 30.269L84.3702 61.4849L95.6813 61.4849L95.6813 30.269L84.3702 30.269Z" fill="black" mask="url(#path-24-inside-5_118_2523)"/>
<path d="M452.622 122.486H476.923V158.285H477.185L495.214 122.486H521.083L497.566 163.25L523.958 215.772H496.26L482.019 183.239L476.923 191.078V215.772H452.622V122.486Z" fill="black"/>
<path d="M405.893 169.129C405.893 175.4 405.98 180.626 406.154 184.807C406.328 188.901 406.677 192.167 407.199 194.606C407.809 197.045 408.636 198.743 409.682 199.701C410.814 200.66 412.295 201.139 414.124 201.139C415.953 201.139 417.39 200.66 418.435 199.701C419.568 198.743 420.395 197.045 420.918 194.606C421.527 192.167 421.919 188.901 422.093 184.807C422.268 180.626 422.355 175.4 422.355 169.129C422.355 162.858 422.268 157.675 422.093 153.582C421.919 149.401 421.527 146.091 420.918 143.652C420.395 141.213 419.568 139.515 418.435 138.557C417.39 137.598 415.953 137.119 414.124 137.119C412.295 137.119 410.814 137.598 409.682 138.557C408.636 139.515 407.809 141.213 407.199 143.652C406.677 146.091 406.328 149.401 406.154 153.582C405.98 157.675 405.893 162.858 405.893 169.129ZM380.808 169.129C380.808 160.419 381.374 153.015 382.506 146.918C383.638 140.734 385.511 135.726 388.124 131.893C390.737 127.974 394.178 125.143 398.446 123.401C402.714 121.572 407.94 120.657 414.124 120.657C420.308 120.657 425.534 121.572 429.802 123.401C434.07 125.143 437.51 127.974 440.123 131.893C442.736 135.726 444.609 140.734 445.741 146.918C446.874 153.015 447.44 160.419 447.44 169.129C447.44 177.839 446.874 185.286 445.741 191.47C444.609 197.567 442.736 202.576 440.123 206.495C437.51 210.328 434.07 213.071 429.802 214.726C425.534 216.381 420.308 217.209 414.124 217.209C407.94 217.209 402.714 216.381 398.446 214.726C394.178 213.071 390.737 210.328 388.124 206.495C385.511 202.576 383.638 197.567 382.506 191.47C381.374 185.286 380.808 177.839 380.808 169.129Z" fill="black"/>
<path d="M335.908 169.129C335.908 175.4 335.995 180.626 336.169 184.807C336.343 188.901 336.692 192.167 337.214 194.606C337.824 197.045 338.652 198.743 339.697 199.701C340.829 200.66 342.31 201.139 344.139 201.139C345.968 201.139 347.405 200.66 348.45 199.701C349.583 198.743 350.41 197.045 350.933 194.606C351.542 192.167 351.934 188.901 352.109 184.807C352.283 180.626 352.37 175.4 352.37 169.129C352.37 162.858 352.283 157.675 352.109 153.582C351.934 149.401 351.542 146.091 350.933 143.652C350.41 141.213 349.583 139.515 348.45 138.557C347.405 137.598 345.968 137.119 344.139 137.119C342.31 137.119 340.829 137.598 339.697 138.557C338.652 139.515 337.824 141.213 337.214 143.652C336.692 146.091 336.343 149.401 336.169 153.582C335.995 157.675 335.908 162.858 335.908 169.129ZM310.823 169.129C310.823 160.419 311.389 153.015 312.521 146.918C313.654 140.734 315.526 135.726 318.139 131.893C320.752 127.974 324.193 125.143 328.461 123.401C332.729 121.572 337.955 120.657 344.139 120.657C350.323 120.657 355.549 121.572 359.817 123.401C364.085 125.143 367.525 127.974 370.138 131.893C372.752 135.726 374.624 140.734 375.757 146.918C376.889 153.015 377.455 160.419 377.455 169.129C377.455 177.839 376.889 185.286 375.757 191.47C374.624 197.567 372.752 202.576 370.138 206.495C367.525 210.328 364.085 213.071 359.817 214.726C355.549 216.381 350.323 217.209 344.139 217.209C337.955 217.209 332.729 216.381 328.461 214.726C324.193 213.071 320.752 210.328 318.139 206.495C315.526 202.576 313.654 197.567 312.521 191.47C311.389 185.286 310.823 177.839 310.823 169.129Z" fill="black"/>
<path d="M238.861 122.486H266.036L281.714 179.973H281.976V122.486H304.709V215.772H278.056L261.855 158.154H261.594V215.772H238.861V122.486Z" fill="black"/>
<path d="M450.326 2.58838H474.627V38.3869H474.888L492.918 2.58838H518.787L495.27 43.3516L521.661 95.8735H493.963L479.722 63.3413L474.627 71.1804V95.8735H450.326V2.58838Z" fill="black"/>
<path d="M403.597 49.231C403.597 55.5022 403.684 60.7283 403.858 64.9091C404.032 69.0029 404.38 72.2692 404.903 74.708C405.513 77.1468 406.34 78.8453 407.385 79.8034C408.518 80.7615 409.998 81.2406 411.828 81.2406C413.657 81.2406 415.094 80.7615 416.139 79.8034C417.271 78.8453 418.099 77.1468 418.621 74.708C419.231 72.2692 419.623 69.0029 419.797 64.9091C419.972 60.7283 420.059 55.5022 420.059 49.231C420.059 42.9597 419.972 37.7772 419.797 33.6834C419.623 29.5026 419.231 26.1928 418.621 23.7539C418.099 21.3151 417.271 19.6166 416.139 18.6585C415.094 17.7004 413.657 17.2214 411.828 17.2214C409.998 17.2214 408.518 17.7004 407.385 18.6585C406.34 19.6166 405.513 21.3151 404.903 23.7539C404.38 26.1928 404.032 29.5026 403.858 33.6834C403.684 37.7772 403.597 42.9597 403.597 49.231ZM378.511 49.231C378.511 40.5209 379.078 33.1173 380.21 27.0202C381.342 20.836 383.215 15.8277 385.828 11.9953C388.441 8.07576 391.881 5.24498 396.149 3.50296C400.417 1.67384 405.643 0.759277 411.828 0.759277C418.012 0.759277 423.238 1.67384 427.506 3.50296C431.774 5.24498 435.214 8.07576 437.827 11.9953C440.44 15.8277 442.313 20.836 443.445 27.0202C444.578 33.1173 445.144 40.5209 445.144 49.231C445.144 57.9411 444.578 65.3882 443.445 71.5724C442.313 77.6694 440.44 82.6777 437.827 86.5973C435.214 90.4297 431.774 93.1734 427.506 94.8283C423.238 96.4832 418.012 97.3107 411.828 97.3107C405.643 97.3107 400.417 96.4832 396.149 94.8283C391.881 93.1734 388.441 90.4297 385.828 86.5973C383.215 82.6777 381.342 77.6694 380.21 71.5724C379.078 65.3882 378.511 57.9411 378.511 49.231Z" fill="black"/>
<path d="M333.611 49.231C333.611 55.5022 333.699 60.7283 333.873 64.9091C334.047 69.0029 334.395 72.2692 334.918 74.708C335.528 77.1468 336.355 78.8453 337.4 79.8034C338.533 80.7615 340.013 81.2406 341.842 81.2406C343.672 81.2406 345.109 80.7615 346.154 79.8034C347.286 78.8453 348.114 77.1468 348.636 74.708C349.246 72.2692 349.638 69.0029 349.812 64.9091C349.986 60.7283 350.074 55.5022 350.074 49.231C350.074 42.9597 349.986 37.7772 349.812 33.6834C349.638 29.5026 349.246 26.1928 348.636 23.7539C348.114 21.3151 347.286 19.6166 346.154 18.6585C345.109 17.7004 343.672 17.2214 341.842 17.2214C340.013 17.2214 338.533 17.7004 337.4 18.6585C336.355 19.6166 335.528 21.3151 334.918 23.7539C334.395 26.1928 334.047 29.5026 333.873 33.6834C333.699 37.7772 333.611 42.9597 333.611 49.231ZM308.526 49.231C308.526 40.5209 309.093 33.1173 310.225 27.0202C311.357 20.836 313.23 15.8277 315.843 11.9953C318.456 8.07576 321.896 5.24498 326.164 3.50296C330.432 1.67384 335.658 0.759277 341.842 0.759277C348.027 0.759277 353.253 1.67384 357.521 3.50296C361.789 5.24498 365.229 8.07576 367.842 11.9953C370.455 15.8277 372.328 20.836 373.46 27.0202C374.592 33.1173 375.159 40.5209 375.159 49.231C375.159 57.9411 374.592 65.3882 373.46 71.5724C372.328 77.6694 370.455 82.6777 367.842 86.5973C365.229 90.4297 361.789 93.1734 357.521 94.8283C353.253 96.4832 348.027 97.3107 341.842 97.3107C335.658 97.3107 330.432 96.4832 326.164 94.8283C321.896 93.1734 318.456 90.4297 315.843 86.5973C313.23 82.6777 311.357 77.6694 310.225 71.5724C309.093 65.3882 308.526 57.9411 308.526 49.231Z" fill="black"/>
<path d="M263.945 78.3662H270.739C273.004 78.3662 275.007 77.4517 276.749 75.6225C278.491 73.7063 279.362 70.7884 279.362 66.8689C279.362 63.2106 278.491 60.4234 276.749 58.5072C275.007 56.591 273.004 55.6329 270.739 55.6329H263.945V78.3662ZM263.945 39.1708H269.825C272.35 39.1708 274.267 38.2562 275.573 36.4271C276.88 34.5109 277.533 32.2898 277.533 29.7639C277.533 27.1508 276.88 24.8862 275.573 22.97C274.267 21.0538 272.35 20.0957 269.825 20.0957H263.945V39.1708ZM239.644 2.58838H276.357C285.067 2.58838 291.469 4.72235 295.563 8.9903C299.744 13.1711 301.834 18.7892 301.834 25.8443C301.834 28.2832 301.529 30.6784 300.92 33.0302C300.397 35.2948 299.526 37.3852 298.307 39.3014C297.174 41.1306 295.694 42.6984 293.864 44.0049C292.035 45.3114 289.814 46.226 287.201 46.7486V47.0099C290.25 47.2712 292.863 48.0986 295.04 49.4922C297.218 50.7988 299.003 52.4537 300.397 54.457C301.791 56.4603 302.792 58.6814 303.402 61.1202C304.099 63.4719 304.447 65.8672 304.447 68.3061C304.447 72.3127 303.925 76.0145 302.879 79.4114C301.834 82.8084 300.179 85.7262 297.915 88.1651C295.737 90.6039 292.863 92.5201 289.292 93.9137C285.72 95.2202 281.409 95.8735 276.357 95.8735H239.644V2.58838Z" fill="black"/>
</svg>
