<svg width="159" height="112" viewBox="0 0 159 112" fill="none" xmlns="http://www.w3.org/2000/svg">
<g clip-path="url(#clip0_201_3710)">
<rect width="159" height="112" fill="white"/>
<rect x="0.772583" y="111.402" width="110.804" height="157.462" rx="9.5" transform="rotate(-90 0.772583 111.402)" fill="black" stroke="white"/>
<path d="M123.088 86.3884C118.112 87.7218 113.393 88.143 108.933 87.6519C104.525 87.0699 100.448 85.5564 96.7008 83.1112C93.0257 80.6467 89.7985 77.2574 87.0191 72.9432C84.2207 68.5576 81.9783 63.2181 80.292 56.9247C78.6057 50.6314 77.8683 44.8503 78.0799 39.5815C78.2723 34.2411 79.3341 29.5492 81.2655 25.5058C83.2498 21.3716 85.9953 17.9149 89.5022 15.1356C93.0812 12.337 97.359 10.271 102.335 8.93757C109.115 7.12099 115.124 7.04391 120.362 8.70634C125.6 10.3688 130.33 13.7388 134.55 18.8165L124.05 28.5285C122.068 25.4572 119.582 23.2488 116.593 21.9035C113.585 20.4866 109.954 20.3483 105.698 21.4885C100.361 22.9185 96.5851 25.8466 94.3698 30.2727C92.2267 34.6794 92.0174 40.101 93.742 46.5373L96.9038 58.3373C98.6476 64.8452 101.54 69.4357 105.58 72.109C109.673 74.6914 114.388 75.2676 119.725 73.8375C123.981 72.6973 127.136 70.6254 129.191 67.6219C131.319 64.5991 132.545 61.2428 132.871 57.553L146.257 61.2095C145.011 67.522 142.538 72.8604 138.837 77.2245C135.118 81.5172 129.868 84.5718 123.088 86.3884Z" fill="white"/>
<path d="M55.9791 21.3586L70.4717 75.4456C71.3763 78.8215 71.6169 82.029 71.1934 85.0679C70.8422 88.0875 69.8798 90.8474 68.3064 93.3476C66.8052 95.8284 64.7193 98.004 62.0488 99.8744C59.3784 101.745 56.2027 103.173 52.5218 104.159C45.5208 106.035 39.5904 105.7 34.7307 103.153C29.8517 100.534 26.0625 96.3523 23.3632 90.6088L35.8494 84.3762C37.3651 87.4344 39.1935 89.639 41.3347 90.9899C43.5288 92.2496 46.1055 92.4831 49.0646 91.6902C51.8794 90.9359 53.9581 89.4551 55.3005 87.2478C56.6959 84.9492 56.9028 81.9683 55.9213 78.3051L44.8064 36.824L20.9887 43.2059L17.8708 31.5696L55.9791 21.3586Z" fill="white"/>
</g>
<defs>
<clipPath id="clip0_201_3710">
<rect width="159" height="112" fill="white"/>
</clipPath>
</defs>
</svg>
