<svg width="52" height="37" viewBox="0 0 52 37" fill="none" xmlns="http://www.w3.org/2000/svg">
<path d="M5.3083 22.0975C5.30691 22.0983 5.30538 22.0989 5.30385 22.0998C4.7445 22.3906 4.50156 23.0623 4.74616 23.6436C4.99147 24.2268 5.64416 24.5228 6.2445 24.3231L23.1697 18.6919L20.0049 23.86C19.775 24.2355 19.8237 24.7181 20.1238 25.0403C20.424 25.3622 20.9021 25.4447 21.293 25.2415L24.6119 23.5169C24.7072 23.4675 24.7937 23.4026 24.868 23.3248L34.7002 13.0543L46.8343 6.72288C51.4299 4.24557 50.8975 2.34122 50.625 1.81673C50.4137 1.41003 49.9413 0.8647 48.8916 0.57634C47.8269 0.283813 46.3885 0.307148 44.495 0.647735C43.8628 0.761357 43.5139 0.751772 43.1444 0.741633C41.8455 0.706074 40.9645 0.793165 36.5899 3.06629L12.6638 15.5001L3.38521 10.6846C3.03531 10.5031 2.61903 10.5032 2.26913 10.6852L0.705655 11.4978C0.38382 11.665 0.153938 11.9677 0.0792087 12.3226C0.00447965 12.6776 0.0928211 13.0473 0.319786 13.33L6.75982 21.3514L5.3083 22.0975Z" fill="#2B2F31"/>
<path d="M49.3708 31.8418H4.07439C2.80066 31.8418 1.76807 32.8747 1.76807 34.1481C1.76807 35.4216 2.80066 36.4544 4.07439 36.4544H49.3708C50.6445 36.4544 51.6771 35.4218 51.6771 34.1481C51.677 32.8743 50.6445 31.8418 49.3708 31.8418Z" fill="#2B2F31"/>
</svg>
