<svg width="128" height="87" viewBox="0 0 128 87" fill="none" xmlns="http://www.w3.org/2000/svg">
<mask id="path-1-outside-1_124_2634" maskUnits="userSpaceOnUse" x="-1" y="-1" width="130" height="89" fill="black">
<rect fill="white" x="-1" y="-1" width="130" height="89"/>
<path d="M21.0625 50.25L20.1875 52.125C15.8542 61.125 12.9583 67.5417 11.5 71.375C9.25 77.375 7.97917 80.875 7.6875 81.875C6.8125 84.6667 5.66667 86.0625 4.25 86.0625C3.25 86.0625 2.39583 85.6042 1.6875 84.6875C1.0625 83.8958 0.75 83.0417 0.75 82.125C0.75 78.5417 5.35417 67.2292 14.5625 48.1875C12.8958 46.9375 12.0625 45.6875 12.0625 44.4375C12.0625 43.4792 12.4792 42.6458 13.3125 41.9375C14.0208 41.3542 14.7917 41.0625 15.625 41.0625C16.2083 41.0625 16.9792 41.2083 17.9375 41.5C24.7292 28.5833 28.7083 20.3542 29.875 16.8125C28.8333 17.3958 27.5 18.2292 25.875 19.3125C24.9583 19.8958 24.1458 20.1875 23.4375 20.1875C22.6458 20.1875 22 19.7917 21.5 19C21.1667 18.4583 21 17.8958 21 17.3125C21 15.3542 22.6875 13.25 26.0625 11C28.7708 9.20833 31.2917 7.70833 33.625 6.5C34 5.5 34.2292 4.8125 34.3125 4.4375C34.7292 2.85417 35.1667 1.79167 35.625 1.25C36.0833 0.708333 36.7917 0.4375 37.75 0.4375C39.7083 0.4375 40.6875 1.52083 40.6875 3.6875C43.5625 2.85417 46.1042 2.22917 48.3125 1.8125C50.5208 1.39583 52.3958 1.1875 53.9375 1.1875C57.9792 1.1875 61.3958 2.72917 64.1875 5.8125C66.8125 8.72917 68.125 12 68.125 15.625C68.125 21.9167 65.5 28.2083 60.25 34.5C55.75 39.8333 50.1667 44 43.5 47C37.75 49.5417 32 50.8125 26.25 50.8125C24.875 50.8125 23.1458 50.625 21.0625 50.25ZM38.5625 12.125C37.1875 16.25 34.9375 21.5417 31.8125 28C27.9792 35.8333 25.5 40.9583 24.375 43.375C26.6667 43.7917 28.2708 44 29.1875 44C33.9375 44 39.4792 42.0833 45.8125 38.25C51.9375 34.5 56.7292 29.8542 60.1875 24.3125C62.3125 20.9375 63.375 17.9375 63.375 15.3125C63.375 12.9375 62.5625 11.1667 60.9375 10C59.3542 8.79167 56.9375 8.1875 53.6875 8.1875C51.2292 8.1875 48.7292 8.52083 46.1875 9.1875C43.6875 9.8125 41.1458 10.7917 38.5625 12.125ZM63 59.375C61.75 62.625 60.8125 65.25 60.1875 67.25C59.5625 69.25 59.25 70.6458 59.25 71.4375C59.25 72.4792 59.75 73 60.75 73C62.25 73 64.1875 71.5833 66.5625 68.75C67.6875 67.375 69.3542 64.8958 71.5625 61.3125C72.4375 59.8958 73.3542 59.1875 74.3125 59.1875C75.3958 59.1875 75.9375 59.7083 75.9375 60.75C75.9375 62.5417 73.875 66.1667 69.75 71.625C65.4583 77.3333 61.4792 80.1875 57.8125 80.1875C56.2292 80.1875 54.9375 79.5208 53.9375 78.1875C53.2292 77.2292 52.875 76.0625 52.875 74.6875C52.875 72.3542 53.5833 69.125 55 65C56.4167 60.875 58.5208 55.8542 61.3125 49.9375C68.4792 34.8958 75.7917 22.5 83.25 12.75C89.2083 4.91667 94.1458 1 98.0625 1C99.3125 1 100.333 1.47917 101.125 2.4375C101.958 3.39583 102.375 4.5 102.375 5.75C102.375 11.5833 97.1667 21.2917 86.75 34.875C82.0833 40.9167 76.5 46.9583 70 53C68.2917 54.5833 65.9583 56.7083 63 59.375ZM67.4375 49.4375C76.1042 42.0208 83.8542 32.6458 90.6875 21.3125C94.2292 15.4375 96 11.5417 96 9.625C96 8.70833 95.6042 8.25 94.8125 8.25C92.5208 8.25 88.3542 12.8125 82.3125 21.9375C77.3125 29.4375 72.3542 38.6042 67.4375 49.4375ZM96.625 42.6875C97.3333 42.6875 97.9167 42.9583 98.375 43.5C98.7083 43.9583 98.875 44.4167 98.875 44.875C98.875 45.625 98.2708 46.875 97.0625 48.625C92.7292 55.3333 89.6458 60.8542 87.8125 65.1875C85.8542 69.6458 84.125 74.2292 82.625 78.9375C81.9583 81.0208 80.9167 82.0625 79.5 82.0625C78.6667 82.0625 78 81.7292 77.5 81.0625C77.0417 80.5208 76.8125 79.9375 76.8125 79.3125C76.8125 78.0625 78.1458 73.8958 80.8125 66.8125C82.8958 61.2292 86.2708 55.0625 90.9375 48.3125C92.4375 46.1042 93.5625 44.625 94.3125 43.875C95.0625 43.0833 95.8333 42.6875 96.625 42.6875ZM108.5 19.5C110.375 19.5 111.312 20.4583 111.312 22.375C111.312 24.125 110.396 26.0625 108.562 28.1875C106.812 30.2292 105.125 31.25 103.5 31.25C102.708 31.25 102.062 30.9583 101.562 30.375C101.062 29.8333 100.812 29.1667 100.812 28.375C100.812 26.375 101.917 24.25 104.125 22C105.75 20.3333 107.208 19.5 108.5 19.5ZM119.75 41.375C123.042 41.375 124.688 43.1042 124.688 46.5625C124.688 49.6042 123.5 52.6667 121.125 55.75C119.292 58.0833 117.688 59.25 116.312 59.25C115.146 59.25 114.562 58.5833 114.562 57.25C114.562 56.5417 114.729 55.9792 115.062 55.5625C115.188 55.3958 115.688 54.9167 116.562 54.125C117.312 53.4167 118.083 52.3542 118.875 50.9375C119.417 49.9792 119.688 49.2083 119.688 48.625C119.688 47.9583 119.312 47.625 118.562 47.625C117.688 47.625 116.354 48.3125 114.562 49.6875C111.729 51.8958 108.896 55.3542 106.062 60.0625C103.146 64.9792 101.688 68.8542 101.688 71.6875C101.688 72.6042 101.958 73.4167 102.5 74.125C103.292 75.2083 104.354 75.75 105.688 75.75C108.312 75.75 111.417 74.125 115 70.875C118.042 68.0833 120.604 65.2917 122.688 62.5C123.771 60.9583 124.708 60.1875 125.5 60.1875C125.958 60.1875 126.375 60.3958 126.75 60.8125C127.083 61.2292 127.25 61.6458 127.25 62.0625C127.25 63.6042 125.271 66.6042 121.312 71.0625C115.021 78.0625 109.312 81.5625 104.188 81.5625C101.104 81.5625 98.75 80.4583 97.125 78.25C95.9583 76.625 95.375 74.7083 95.375 72.5C95.375 68.1667 97.1667 63.1458 100.75 57.4375C104.208 51.9792 108.208 47.5833 112.75 44.25C115.417 42.3333 117.75 41.375 119.75 41.375Z"/>
</mask>
<path d="M21.0625 50.25L20.1875 52.125C15.8542 61.125 12.9583 67.5417 11.5 71.375C9.25 77.375 7.97917 80.875 7.6875 81.875C6.8125 84.6667 5.66667 86.0625 4.25 86.0625C3.25 86.0625 2.39583 85.6042 1.6875 84.6875C1.0625 83.8958 0.75 83.0417 0.75 82.125C0.75 78.5417 5.35417 67.2292 14.5625 48.1875C12.8958 46.9375 12.0625 45.6875 12.0625 44.4375C12.0625 43.4792 12.4792 42.6458 13.3125 41.9375C14.0208 41.3542 14.7917 41.0625 15.625 41.0625C16.2083 41.0625 16.9792 41.2083 17.9375 41.5C24.7292 28.5833 28.7083 20.3542 29.875 16.8125C28.8333 17.3958 27.5 18.2292 25.875 19.3125C24.9583 19.8958 24.1458 20.1875 23.4375 20.1875C22.6458 20.1875 22 19.7917 21.5 19C21.1667 18.4583 21 17.8958 21 17.3125C21 15.3542 22.6875 13.25 26.0625 11C28.7708 9.20833 31.2917 7.70833 33.625 6.5C34 5.5 34.2292 4.8125 34.3125 4.4375C34.7292 2.85417 35.1667 1.79167 35.625 1.25C36.0833 0.708333 36.7917 0.4375 37.75 0.4375C39.7083 0.4375 40.6875 1.52083 40.6875 3.6875C43.5625 2.85417 46.1042 2.22917 48.3125 1.8125C50.5208 1.39583 52.3958 1.1875 53.9375 1.1875C57.9792 1.1875 61.3958 2.72917 64.1875 5.8125C66.8125 8.72917 68.125 12 68.125 15.625C68.125 21.9167 65.5 28.2083 60.25 34.5C55.75 39.8333 50.1667 44 43.5 47C37.75 49.5417 32 50.8125 26.25 50.8125C24.875 50.8125 23.1458 50.625 21.0625 50.25ZM38.5625 12.125C37.1875 16.25 34.9375 21.5417 31.8125 28C27.9792 35.8333 25.5 40.9583 24.375 43.375C26.6667 43.7917 28.2708 44 29.1875 44C33.9375 44 39.4792 42.0833 45.8125 38.25C51.9375 34.5 56.7292 29.8542 60.1875 24.3125C62.3125 20.9375 63.375 17.9375 63.375 15.3125C63.375 12.9375 62.5625 11.1667 60.9375 10C59.3542 8.79167 56.9375 8.1875 53.6875 8.1875C51.2292 8.1875 48.7292 8.52083 46.1875 9.1875C43.6875 9.8125 41.1458 10.7917 38.5625 12.125ZM63 59.375C61.75 62.625 60.8125 65.25 60.1875 67.25C59.5625 69.25 59.25 70.6458 59.25 71.4375C59.25 72.4792 59.75 73 60.75 73C62.25 73 64.1875 71.5833 66.5625 68.75C67.6875 67.375 69.3542 64.8958 71.5625 61.3125C72.4375 59.8958 73.3542 59.1875 74.3125 59.1875C75.3958 59.1875 75.9375 59.7083 75.9375 60.75C75.9375 62.5417 73.875 66.1667 69.75 71.625C65.4583 77.3333 61.4792 80.1875 57.8125 80.1875C56.2292 80.1875 54.9375 79.5208 53.9375 78.1875C53.2292 77.2292 52.875 76.0625 52.875 74.6875C52.875 72.3542 53.5833 69.125 55 65C56.4167 60.875 58.5208 55.8542 61.3125 49.9375C68.4792 34.8958 75.7917 22.5 83.25 12.75C89.2083 4.91667 94.1458 1 98.0625 1C99.3125 1 100.333 1.47917 101.125 2.4375C101.958 3.39583 102.375 4.5 102.375 5.75C102.375 11.5833 97.1667 21.2917 86.75 34.875C82.0833 40.9167 76.5 46.9583 70 53C68.2917 54.5833 65.9583 56.7083 63 59.375ZM67.4375 49.4375C76.1042 42.0208 83.8542 32.6458 90.6875 21.3125C94.2292 15.4375 96 11.5417 96 9.625C96 8.70833 95.6042 8.25 94.8125 8.25C92.5208 8.25 88.3542 12.8125 82.3125 21.9375C77.3125 29.4375 72.3542 38.6042 67.4375 49.4375ZM96.625 42.6875C97.3333 42.6875 97.9167 42.9583 98.375 43.5C98.7083 43.9583 98.875 44.4167 98.875 44.875C98.875 45.625 98.2708 46.875 97.0625 48.625C92.7292 55.3333 89.6458 60.8542 87.8125 65.1875C85.8542 69.6458 84.125 74.2292 82.625 78.9375C81.9583 81.0208 80.9167 82.0625 79.5 82.0625C78.6667 82.0625 78 81.7292 77.5 81.0625C77.0417 80.5208 76.8125 79.9375 76.8125 79.3125C76.8125 78.0625 78.1458 73.8958 80.8125 66.8125C82.8958 61.2292 86.2708 55.0625 90.9375 48.3125C92.4375 46.1042 93.5625 44.625 94.3125 43.875C95.0625 43.0833 95.8333 42.6875 96.625 42.6875ZM108.5 19.5C110.375 19.5 111.312 20.4583 111.312 22.375C111.312 24.125 110.396 26.0625 108.562 28.1875C106.812 30.2292 105.125 31.25 103.5 31.25C102.708 31.25 102.062 30.9583 101.562 30.375C101.062 29.8333 100.812 29.1667 100.812 28.375C100.812 26.375 101.917 24.25 104.125 22C105.75 20.3333 107.208 19.5 108.5 19.5ZM119.75 41.375C123.042 41.375 124.688 43.1042 124.688 46.5625C124.688 49.6042 123.5 52.6667 121.125 55.75C119.292 58.0833 117.688 59.25 116.312 59.25C115.146 59.25 114.562 58.5833 114.562 57.25C114.562 56.5417 114.729 55.9792 115.062 55.5625C115.188 55.3958 115.688 54.9167 116.562 54.125C117.312 53.4167 118.083 52.3542 118.875 50.9375C119.417 49.9792 119.688 49.2083 119.688 48.625C119.688 47.9583 119.312 47.625 118.562 47.625C117.688 47.625 116.354 48.3125 114.562 49.6875C111.729 51.8958 108.896 55.3542 106.062 60.0625C103.146 64.9792 101.688 68.8542 101.688 71.6875C101.688 72.6042 101.958 73.4167 102.5 74.125C103.292 75.2083 104.354 75.75 105.688 75.75C108.312 75.75 111.417 74.125 115 70.875C118.042 68.0833 120.604 65.2917 122.688 62.5C123.771 60.9583 124.708 60.1875 125.5 60.1875C125.958 60.1875 126.375 60.3958 126.75 60.8125C127.083 61.2292 127.25 61.6458 127.25 62.0625C127.25 63.6042 125.271 66.6042 121.312 71.0625C115.021 78.0625 109.312 81.5625 104.188 81.5625C101.104 81.5625 98.75 80.4583 97.125 78.25C95.9583 76.625 95.375 74.7083 95.375 72.5C95.375 68.1667 97.1667 63.1458 100.75 57.4375C104.208 51.9792 108.208 47.5833 112.75 44.25C115.417 42.3333 117.75 41.375 119.75 41.375Z" fill="#BCB0A0"/>
<path d="M21.0625 50.25L21.2397 49.2658L20.4819 49.1294L20.1563 49.8271L21.0625 50.25ZM20.1875 52.125L21.0886 52.5588L21.0937 52.5479L20.1875 52.125ZM11.5 71.375L10.5653 71.0194L10.5637 71.0239L11.5 71.375ZM7.6875 81.875L8.64173 82.1741L8.64471 82.1646L8.6475 82.155L7.6875 81.875ZM1.6875 84.6875L2.47883 84.076L2.47238 84.0679L1.6875 84.6875ZM14.5625 48.1875L15.4628 48.6229L15.8212 47.8816L15.1625 47.3875L14.5625 48.1875ZM13.3125 41.9375L12.6768 41.1656L12.6708 41.1705L12.6649 41.1756L13.3125 41.9375ZM17.9375 41.5L17.6463 42.4567L18.4377 42.6975L18.8226 41.9654L17.9375 41.5ZM29.875 16.8125L30.8248 17.1254L31.629 14.6842L29.3864 15.94L29.875 16.8125ZM25.875 19.3125L26.4119 20.1562L26.4208 20.1505L26.4297 20.1446L25.875 19.3125ZM21.5 19L20.6483 19.5241L20.6545 19.534L21.5 19ZM26.0625 11L25.5108 10.166L25.5078 10.1679L26.0625 11ZM33.625 6.5L34.0849 7.38799L34.4263 7.21117L34.5613 6.85112L33.625 6.5ZM34.3125 4.4375L33.3454 4.18301L33.3405 4.2017L33.3363 4.22057L34.3125 4.4375ZM40.6875 3.6875H39.6875V5.01852L40.9659 4.64797L40.6875 3.6875ZM64.1875 5.8125L64.9308 5.14353L64.9288 5.14132L64.1875 5.8125ZM60.25 34.5L61.0143 35.1449L61.0178 35.1407L60.25 34.5ZM43.5 47L43.9043 47.9146L43.9104 47.9119L43.5 47ZM38.5625 12.125L38.1039 11.2364L37.7424 11.4229L37.6138 11.8088L38.5625 12.125ZM31.8125 28L32.7107 28.4396L32.7127 28.4356L31.8125 28ZM24.375 43.375L23.4684 42.953L22.9218 44.1272L24.1961 44.3589L24.375 43.375ZM45.8125 38.25L46.3303 39.1055L46.3347 39.1029L45.8125 38.25ZM60.1875 24.3125L59.3413 23.7797L59.3391 23.7831L60.1875 24.3125ZM60.9375 10L60.3308 10.795L60.3424 10.8038L60.3543 10.8123L60.9375 10ZM46.1875 9.1875L46.4301 10.1577L46.4412 10.1548L46.1875 9.1875ZM20.1563 49.8271L19.2813 51.7021L21.0937 52.5479L21.9687 50.6729L20.1563 49.8271ZM19.2865 51.6912C14.9533 60.6909 12.0405 67.142 10.5654 71.0194L12.4346 71.7306C13.8762 67.9414 16.755 61.5591 21.0885 52.5588L19.2865 51.6912ZM10.5637 71.0239C8.3221 77.0014 7.03262 80.5489 6.7275 81.595L8.6475 82.155C8.92571 81.2011 10.1779 77.7486 12.4363 71.7261L10.5637 71.0239ZM6.73327 81.5759C6.31328 82.9159 5.8556 83.8249 5.39895 84.3811C4.95939 84.9166 4.57994 85.0625 4.25 85.0625V87.0625C5.33673 87.0625 6.23853 86.5105 6.9448 85.6501C7.63399 84.8106 8.18672 83.6258 8.64173 82.1741L6.73327 81.5759ZM4.25 85.0625C3.61125 85.0625 3.03167 84.7916 2.47879 84.0761L0.896215 85.2989C1.75999 86.4168 2.88875 87.0625 4.25 87.0625V85.0625ZM2.47238 84.0679C1.97187 83.4339 1.75 82.794 1.75 82.125H-0.25C-0.25 83.2894 0.153133 84.3578 0.902617 85.3071L2.47238 84.0679ZM1.75 82.125C1.75 81.3906 1.99639 80.1351 2.56868 78.2836C3.1323 76.4601 3.98386 74.1446 5.12935 71.3301C7.41967 65.7027 10.8622 58.1362 15.4628 48.6229L13.6622 47.7521C9.05444 57.2805 5.59074 64.891 3.2769 70.5762C2.12031 73.4179 1.2453 75.7925 0.657879 77.693C0.0791316 79.5654 -0.25 81.0677 -0.25 82.125H1.75ZM15.1625 47.3875C13.5813 46.2016 13.0625 45.2109 13.0625 44.4375H11.0625C11.0625 46.1641 12.2104 47.6734 13.9625 48.9875L15.1625 47.3875ZM13.0625 44.4375C13.0625 43.8159 13.3151 43.2477 13.9601 42.6994L12.6649 41.1756C11.6432 42.0439 11.0625 43.1425 11.0625 44.4375H13.0625ZM13.9482 42.7094C14.4968 42.2576 15.0475 42.0625 15.625 42.0625V40.0625C14.5359 40.0625 13.5448 40.4507 12.6768 41.1656L13.9482 42.7094ZM15.625 42.0625C16.0637 42.0625 16.7251 42.1763 17.6463 42.4567L18.2287 40.5433C17.2332 40.2404 16.3529 40.0625 15.625 40.0625V42.0625ZM18.8226 41.9654C25.6003 29.0753 29.6263 20.7636 30.8248 17.1254L28.9252 16.4996C27.7903 19.9447 23.8581 28.0913 17.0524 41.0346L18.8226 41.9654ZM29.3864 15.94C28.3126 16.5413 26.9552 17.3905 25.3203 18.4804L26.4297 20.1446C28.0448 19.0678 29.3541 18.2504 30.3636 17.685L29.3864 15.94ZM25.3381 18.4688C24.5026 19.0005 23.8796 19.1875 23.4375 19.1875V21.1875C24.4121 21.1875 25.4141 20.7911 26.4119 20.1562L25.3381 18.4688ZM23.4375 19.1875C23.0562 19.1875 22.7013 19.0294 22.3455 18.466L20.6545 19.534C21.2987 20.5539 22.2355 21.1875 23.4375 21.1875V19.1875ZM22.3517 18.4759C22.1062 18.0771 22 17.6942 22 17.3125H20C20 18.0975 20.2271 18.8396 20.6483 19.5241L22.3517 18.4759ZM22 17.3125C22 16.6333 22.2912 15.8322 23.0457 14.8913C23.8018 13.9486 24.9765 12.9258 26.6172 11.8321L25.5078 10.1679C23.7735 11.3242 22.417 12.4785 21.4855 13.64C20.5526 14.8033 20 16.0334 20 17.3125H22ZM26.6142 11.834C29.2995 10.0576 31.7894 8.57671 34.0849 7.38799L33.1651 5.61201C30.7939 6.83996 28.2421 8.35907 25.5108 10.166L26.6142 11.834ZM34.5613 6.85112C34.9336 5.85844 35.1879 5.10798 35.2887 4.65443L33.3363 4.22057C33.2704 4.51702 33.0664 5.14156 32.6887 6.14888L34.5613 6.85112ZM35.2796 4.69199C35.6954 3.11171 36.0894 2.24931 36.3884 1.89594L34.8616 0.604058C34.244 1.33402 33.7629 2.59662 33.3454 4.18301L35.2796 4.69199ZM36.3884 1.89594C36.5961 1.65049 36.9768 1.4375 37.75 1.4375V-0.5625C36.6065 -0.5625 35.5706 -0.233824 34.8616 0.604058L36.3884 1.89594ZM37.75 1.4375C38.5475 1.4375 38.9698 1.65343 39.2113 1.92054C39.47 2.20685 39.6875 2.73473 39.6875 3.6875H41.6875C41.6875 2.4736 41.4154 1.37648 40.695 0.57946C39.9573 -0.236765 38.9109 -0.5625 37.75 -0.5625V1.4375ZM40.9659 4.64797C43.8196 3.8208 46.3292 3.20435 48.4979 2.79516L48.1271 0.829838C45.8791 1.25398 43.3054 1.88754 40.4091 2.72703L40.9659 4.64797ZM48.4979 2.79516C50.6702 2.3853 52.4792 2.1875 53.9375 2.1875V0.1875C52.3125 0.1875 50.3715 0.406364 48.1271 0.829838L48.4979 2.79516ZM53.9375 2.1875C57.6875 2.1875 60.8378 3.60279 63.4462 6.48368L64.9288 5.14132C61.9538 1.85555 58.2708 0.1875 53.9375 0.1875V2.1875ZM63.4442 6.48146C65.9187 9.23096 67.125 12.2683 67.125 15.625H69.125C69.125 11.7317 67.7063 8.22738 64.9308 5.14354L63.4442 6.48146ZM67.125 15.625C67.125 21.6195 64.6282 27.6923 59.4822 33.8593L61.0178 35.1407C66.3718 28.7244 69.125 22.2138 69.125 15.625H67.125ZM59.4857 33.8551C55.0868 39.0686 49.6265 43.1465 43.0896 46.0881L43.9104 47.9119C50.7068 44.8535 56.4132 40.598 61.0143 35.1449L59.4857 33.8551ZM43.0957 46.0854C37.4611 48.576 31.8482 49.8125 26.25 49.8125V51.8125C32.1518 51.8125 38.0389 50.5073 43.9043 47.9146L43.0957 46.0854ZM26.25 49.8125C24.9571 49.8125 23.2922 49.6353 21.2397 49.2658L20.8853 51.2342C22.9995 51.6147 24.7929 51.8125 26.25 51.8125V49.8125ZM37.6138 11.8088C36.2583 15.8754 34.029 21.1234 30.9123 27.5644L32.7127 28.4356C35.846 21.9599 38.1167 16.6246 39.5112 12.4412L37.6138 11.8088ZM30.9143 27.5604C27.0819 35.3918 24.5983 40.5259 23.4684 42.953L25.2816 43.797C26.4017 41.3908 28.8764 36.2749 32.7107 28.4396L30.9143 27.5604ZM24.1961 44.3589C26.4839 44.7748 28.1698 45 29.1875 45V43C28.3719 43 26.8494 42.8085 24.5539 42.3911L24.1961 44.3589ZM29.1875 45C34.1951 45 39.9207 42.985 46.3303 39.1055L45.2947 37.3945C39.0377 41.1816 33.6799 43 29.1875 43V45ZM46.3347 39.1029C52.5786 35.28 57.4874 30.5279 61.0359 24.8419L59.3391 23.7831C55.9709 29.1804 51.2964 33.72 45.2903 37.3971L46.3347 39.1029ZM61.0337 24.8453C63.2108 21.3877 64.375 18.2 64.375 15.3125H62.375C62.375 17.675 61.4142 20.4873 59.3413 23.7797L61.0337 24.8453ZM64.375 15.3125C64.375 12.684 63.4585 10.5789 61.5207 9.18768L60.3543 10.8123C61.6665 11.7544 62.375 13.191 62.375 15.3125H64.375ZM61.5442 9.20505C59.7069 7.80294 57.0293 7.1875 53.6875 7.1875V9.1875C56.8457 9.1875 59.0014 9.7804 60.3308 10.795L61.5442 9.20505ZM53.6875 7.1875C51.1379 7.1875 48.5526 7.53332 45.9338 8.22022L46.4412 10.1548C48.9057 9.50835 51.3205 9.1875 53.6875 9.1875V7.1875ZM45.945 8.21736C43.3612 8.8633 40.7472 9.87206 38.1039 11.2364L39.0211 13.0136C41.5444 11.7113 44.0138 10.7617 46.43 10.1576L45.945 8.21736ZM63 59.375L62.3305 58.6322L62.1526 58.7925L62.0667 59.016L63 59.375ZM66.5625 68.75L67.3289 69.3924L67.3365 69.3832L66.5625 68.75ZM71.5625 61.3125L70.7117 60.787L70.7112 60.7879L71.5625 61.3125ZM69.75 71.625L68.9522 71.0221L68.9507 71.0241L69.75 71.625ZM53.9375 78.1875L53.1333 78.7819L53.1375 78.7875L53.9375 78.1875ZM61.3125 49.9375L60.4097 49.5074L60.4081 49.5108L61.3125 49.9375ZM83.25 12.75L84.0443 13.3576L84.0459 13.3554L83.25 12.75ZM101.125 2.4375L100.354 3.07438L100.362 3.08413L100.37 3.09368L101.125 2.4375ZM86.75 34.875L87.5414 35.4863L87.5435 35.4835L86.75 34.875ZM70 53L70.6798 53.7334L70.6808 53.7325L70 53ZM67.4375 49.4375L66.5269 49.0242L68.0877 50.1973L67.4375 49.4375ZM90.6875 21.3125L91.5439 21.8288L91.5439 21.8288L90.6875 21.3125ZM82.3125 21.9375L83.1446 22.4922L83.1463 22.4896L82.3125 21.9375ZM62.0667 59.016C60.8133 62.2748 59.8672 64.9224 59.233 66.9517L61.142 67.5483C61.7578 65.5776 62.6867 62.9752 63.9333 59.734L62.0667 59.016ZM59.233 66.9517C58.6117 68.9398 58.25 70.4729 58.25 71.4375H60.25C60.25 70.8188 60.5133 69.5602 61.142 67.5483L59.233 66.9517ZM58.25 71.4375C58.25 72.1025 58.409 72.7867 58.9036 73.3019C59.4055 73.8247 60.0852 74 60.75 74V72C60.584 72 60.4805 71.9781 60.4218 71.9577C60.3683 71.9391 60.3514 71.9221 60.3464 71.9168C60.341 71.9112 60.25 71.8142 60.25 71.4375H58.25ZM60.75 74C61.8055 74 62.8732 73.5089 63.9184 72.7447C64.9773 71.9705 66.1142 70.8415 67.3289 69.3924L65.7961 68.1076C64.6358 69.4918 63.6165 70.4879 62.7379 71.1303C61.8455 71.7827 61.1945 72 60.75 72V74ZM67.3365 69.3832C68.5079 67.9514 70.205 65.4212 72.4138 61.8371L70.7112 60.7879C68.5033 64.3705 66.8671 66.7986 65.7885 68.1168L67.3365 69.3832ZM72.4133 61.838C73.2413 60.4974 73.8973 60.1875 74.3125 60.1875V58.1875C72.811 58.1875 71.6337 59.2942 70.7117 60.787L72.4133 61.838ZM74.3125 60.1875C74.7096 60.1875 74.8221 60.2835 74.8381 60.299C74.8469 60.3074 74.9375 60.3935 74.9375 60.75H76.9375C76.9375 60.0648 76.7573 59.3697 76.2244 58.8573C75.6988 58.3519 74.9987 58.1875 74.3125 58.1875V60.1875ZM74.9375 60.75C74.9375 61.0245 74.8542 61.4568 74.6162 62.0817C74.3826 62.6952 74.0218 63.4387 73.5215 64.318C72.5208 66.0767 71.0028 68.3086 68.9522 71.0221L70.5478 72.2279C72.6222 69.4831 74.198 67.1733 75.2598 65.307C75.7907 64.3738 76.2033 63.534 76.4853 62.7933C76.763 62.064 76.9375 61.3714 76.9375 60.75H74.9375ZM68.9507 71.0241C64.6833 76.7001 60.9664 79.1875 57.8125 79.1875V81.1875C61.992 81.1875 66.2333 77.9666 70.5493 72.2259L68.9507 71.0241ZM57.8125 79.1875C56.5628 79.1875 55.5603 78.6845 54.7375 77.5875L53.1375 78.7875C54.3147 80.3572 55.8955 81.1875 57.8125 81.1875V79.1875ZM54.7417 77.5931C54.1795 76.8325 53.875 75.8827 53.875 74.6875H51.875C51.875 76.2423 52.2789 77.6259 53.1333 78.7819L54.7417 77.5931ZM53.875 74.6875C53.875 72.5226 54.5395 69.4196 55.9458 65.3248L54.0542 64.6752C52.6272 68.8304 51.875 72.1857 51.875 74.6875H53.875ZM55.9458 65.3248C57.3462 61.247 59.434 56.2623 62.2169 50.3642L60.4081 49.5108C57.6077 55.446 55.4871 60.503 54.0542 64.6752L55.9458 65.3248ZM62.2153 50.3676C69.3619 35.3681 76.6401 23.0368 84.0443 13.3576L82.4557 12.1424C74.9432 21.9632 67.5965 34.4236 60.4097 49.5074L62.2153 50.3676ZM84.0459 13.3554C86.9994 9.47246 89.6657 6.60697 92.0433 4.72094C94.4354 2.82341 96.431 2 98.0625 2V0C95.7774 0 93.3458 1.13493 90.8004 3.15406C88.2405 5.1847 85.4589 8.19421 82.4541 12.1446L84.0459 13.3554ZM98.0625 2C99.0162 2 99.7536 2.3475 100.354 3.07438L101.896 1.80062C100.913 0.610829 99.6088 0 98.0625 0V2ZM100.37 3.09368C101.048 3.87323 101.375 4.74536 101.375 5.75H103.375C103.375 4.25464 102.868 2.91844 101.88 1.78132L100.37 3.09368ZM101.375 5.75C101.375 8.41201 100.172 12.117 97.5876 16.9335C95.0188 21.7216 91.1478 27.4969 85.9565 34.2665L87.5435 35.4835C92.7688 28.6697 96.7104 22.7992 99.3499 17.879C101.974 12.9872 103.375 8.92133 103.375 5.75H101.375ZM85.9586 34.2637C81.3303 40.2557 75.7854 46.2573 69.3192 52.2675L70.6808 53.7325C77.2146 47.6593 82.8364 41.5776 87.5414 35.4863L85.9586 34.2637ZM69.3202 52.2666C67.6168 53.8453 65.2874 55.9668 62.3305 58.6322L63.6695 60.1178C66.6293 57.4498 68.9665 55.3213 70.6798 53.7334L69.3202 52.2666ZM68.0877 50.1973C76.8475 42.7009 84.6639 33.2395 91.5439 21.8288L89.8311 20.7962C83.0444 32.0522 75.3608 41.3408 66.7873 48.6777L68.0877 50.1973ZM91.5439 21.8288C93.3244 18.8753 94.6743 16.3957 95.5822 14.3982C96.4714 12.442 97 10.817 97 9.625H95C95 10.3497 94.6432 11.6309 93.7615 13.5706C92.8986 15.4689 91.5923 17.8747 89.8311 20.7962L91.5439 21.8288ZM97 9.625C97 9.04552 96.878 8.42422 96.4599 7.94013C96.0176 7.42799 95.4038 7.25 94.8125 7.25V9.25C94.9162 9.25 94.9626 9.26525 94.972 9.26886C94.9753 9.27014 94.9602 9.26342 94.9463 9.24737C94.9241 9.22161 95 9.28782 95 9.625H97ZM94.8125 7.25C93.9308 7.25 93.0323 7.67618 92.1652 8.28872C91.276 8.91692 90.2967 9.82988 89.2303 10.9975C87.0953 13.3354 84.5099 16.8073 81.4787 21.3854L83.1463 22.4896C86.1568 17.9427 88.6755 14.5708 90.7072 12.3462C91.7242 11.2326 92.5938 10.4346 93.3192 9.92222C94.0667 9.39413 94.5484 9.25 94.8125 9.25V7.25ZM81.4804 21.3828C76.4428 28.9393 71.4593 38.1563 66.5269 49.0242L68.3481 49.8508C73.2491 39.0521 78.1822 29.9357 83.1446 22.4922L81.4804 21.3828ZM98.375 43.5L99.1837 42.9118L99.1621 42.8821L99.1384 42.8541L98.375 43.5ZM97.0625 48.625L96.2396 48.0568L96.2309 48.0695L96.2225 48.0824L97.0625 48.625ZM87.8125 65.1875L88.7282 65.5897L88.7335 65.5771L87.8125 65.1875ZM82.625 78.9375L83.5774 79.2423L83.5778 79.2411L82.625 78.9375ZM77.5 81.0625L78.3 80.4625L78.2824 80.439L78.2634 80.4166L77.5 81.0625ZM80.8125 66.8125L81.7484 67.1648L81.7494 67.1621L80.8125 66.8125ZM90.9375 48.3125L91.7601 48.8812L91.7647 48.8744L90.9375 48.3125ZM94.3125 43.875L95.0196 44.5821L95.0292 44.5726L95.0385 44.5627L94.3125 43.875ZM108.562 28.1875L107.805 27.5343L107.803 27.5367L108.562 28.1875ZM101.562 30.375L102.322 29.7242L102.31 29.7102L102.297 29.6967L101.562 30.375ZM104.125 22L104.839 22.7005L104.841 22.6981L104.125 22ZM96.625 43.6875C97.0386 43.6875 97.3429 43.8284 97.6116 44.1459L99.1384 42.8541C98.4904 42.0883 97.6281 41.6875 96.625 41.6875V43.6875ZM97.5663 44.0882C97.8051 44.4166 97.875 44.6736 97.875 44.875H99.875C99.875 44.1597 99.6115 43.5001 99.1837 42.9118L97.5663 44.0882ZM97.875 44.875C97.875 45.0199 97.8047 45.354 97.5215 45.9398C97.2502 46.5011 96.8282 47.2044 96.2396 48.0568L97.8854 49.1932C98.5051 48.2956 98.9893 47.4989 99.3222 46.8102C99.6432 46.146 99.875 45.4801 99.875 44.875H97.875ZM96.2225 48.0824C91.8762 54.8108 88.7576 60.3872 86.8915 64.7979L88.7335 65.5771C90.5341 61.3211 93.5821 55.8559 97.9025 49.1676L96.2225 48.0824ZM86.8969 64.7853C84.9243 69.2763 83.1827 73.8926 81.6722 78.6339L83.5778 79.2411C85.0673 74.5657 86.7841 70.0153 88.7281 65.5897L86.8969 64.7853ZM81.6726 78.6327C81.3661 79.5904 81.0035 80.2073 80.6366 80.5741C80.295 80.9158 79.9315 81.0625 79.5 81.0625V83.0625C80.4851 83.0625 81.3508 82.6884 82.0509 81.9884C82.7257 81.3135 83.2172 80.3679 83.5774 79.2423L81.6726 78.6327ZM79.5 81.0625C78.9814 81.0625 78.6111 80.8774 78.3 80.4625L76.7 81.6625C77.3889 82.581 78.3519 83.0625 79.5 83.0625V81.0625ZM78.2634 80.4166C77.9359 80.0295 77.8125 79.6691 77.8125 79.3125H75.8125C75.8125 80.2059 76.1475 81.0122 76.7366 81.7084L78.2634 80.4166ZM77.8125 79.3125C77.8125 79.1307 77.8685 78.7377 78.0335 78.0671C78.1926 77.4209 78.4351 76.5854 78.7649 75.5548C79.4241 73.4948 80.4174 70.7003 81.7484 67.1648L79.8766 66.4602C78.541 70.008 77.5342 72.8385 76.8601 74.9452C76.5232 75.9979 76.2657 76.8812 76.0915 77.5891C75.9232 78.2727 75.8125 78.8693 75.8125 79.3125H77.8125ZM81.7494 67.1621C83.7953 61.6791 87.1241 55.5867 91.7601 48.8812L90.1149 47.7438C85.4175 54.5383 81.9964 60.7792 79.8756 66.4629L81.7494 67.1621ZM91.7647 48.8744C93.2667 46.6632 94.3444 45.2573 95.0196 44.5821L93.6054 43.1679C92.7806 43.9927 91.6083 45.5451 90.1103 47.7506L91.7647 48.8744ZM95.0385 44.5627C95.673 43.8929 96.199 43.6875 96.625 43.6875V41.6875C95.4677 41.6875 94.452 42.2737 93.5865 43.1873L95.0385 44.5627ZM108.5 20.5C109.278 20.5 109.679 20.6973 109.895 20.918C110.114 21.1428 110.312 21.5654 110.312 22.375H112.312C112.312 21.268 112.042 20.253 111.324 19.5195C110.603 18.7819 109.597 18.5 108.5 18.5V20.5ZM110.312 22.375C110.312 23.7772 109.571 25.4876 107.805 27.5343L109.32 28.8407C111.221 26.6374 112.312 24.4728 112.312 22.375H110.312ZM107.803 27.5367C106.122 29.4978 104.688 30.25 103.5 30.25V32.25C105.562 32.25 107.503 30.9606 109.322 28.8383L107.803 27.5367ZM103.5 30.25C102.99 30.25 102.625 30.0783 102.322 29.7242L100.803 31.0258C101.5 31.8384 102.427 32.25 103.5 32.25V30.25ZM102.297 29.6967C101.981 29.3542 101.812 28.9356 101.812 28.375H99.8125C99.8125 29.3977 100.144 30.3125 100.828 31.0533L102.297 29.6967ZM101.812 28.375C101.812 26.7535 102.712 24.8676 104.839 22.7005L103.411 21.2995C101.122 23.6324 99.8125 25.9965 99.8125 28.375H101.812ZM104.841 22.6981C106.416 21.0826 107.627 20.5 108.5 20.5V18.5C106.79 18.5 105.084 19.5841 103.409 21.3019L104.841 22.6981ZM121.125 55.75L121.911 56.3679L121.917 56.3602L121.125 55.75ZM115.062 55.5625L115.843 56.1872L115.853 56.175L115.862 56.1625L115.062 55.5625ZM116.562 54.125L117.233 54.8665L117.241 54.8594L117.249 54.852L116.562 54.125ZM118.875 50.9375L118.004 50.4454L118.002 50.4497L118.875 50.9375ZM114.562 49.6875L113.954 48.8942L113.948 48.8988L114.562 49.6875ZM106.062 60.0625L105.206 59.5469L105.202 59.5523L106.062 60.0625ZM102.5 74.125L103.307 73.535L103.301 73.5262L103.294 73.5175L102.5 74.125ZM115 70.875L115.672 71.6157L115.676 71.6117L115 70.875ZM122.688 62.5L123.489 63.0981L123.497 63.0866L123.506 63.0749L122.688 62.5ZM126.75 60.8125L127.531 60.1878L127.513 60.1651L127.493 60.1435L126.75 60.8125ZM121.312 71.0625L122.056 71.731L122.06 71.7264L121.312 71.0625ZM97.125 78.25L96.3126 78.8332L96.3196 78.8427L97.125 78.25ZM100.75 57.4375L99.9053 56.9023L99.903 56.9058L100.75 57.4375ZM112.75 44.25L112.166 43.4379L112.158 43.4438L112.75 44.25ZM119.75 42.375C121.229 42.375 122.157 42.7609 122.729 43.3613C123.309 43.9709 123.688 44.9755 123.688 46.5625H125.688C125.688 44.6912 125.243 43.102 124.177 41.9824C123.103 40.8536 121.563 40.375 119.75 40.375V42.375ZM123.688 46.5625C123.688 49.3282 122.611 52.1819 120.333 55.1398L121.917 56.3602C124.389 53.1514 125.688 49.8801 125.688 46.5625H123.688ZM120.339 55.1322C119.454 56.2585 118.659 57.0568 117.959 57.5663C117.255 58.0782 116.714 58.25 116.312 58.25V60.25C117.286 60.25 118.235 59.8385 119.135 59.1837C120.039 58.5265 120.963 57.5748 121.911 56.3678L120.339 55.1322ZM116.312 58.25C115.921 58.25 115.799 58.1442 115.753 58.0915C115.684 58.0133 115.562 57.7929 115.562 57.25H113.562C113.562 58.0404 113.733 58.8201 114.247 59.4085C114.785 60.0225 115.538 60.25 116.312 60.25V58.25ZM115.562 57.25C115.562 56.6942 115.692 56.376 115.843 56.1872L114.282 54.9378C113.766 55.5824 113.562 56.3891 113.562 57.25H115.562ZM115.863 56.1625C115.854 56.1744 115.871 56.1511 115.945 56.0743C116.011 56.0061 116.103 55.9153 116.223 55.8001C116.463 55.5701 116.799 55.2597 117.233 54.8665L115.892 53.3835C115.451 53.7819 115.099 54.1069 114.839 54.3561C114.604 54.5818 114.383 54.8013 114.262 54.9625L115.863 56.1625ZM117.249 54.852C118.103 54.0458 118.932 52.886 119.748 51.4253L118.002 50.4497C117.235 51.8223 116.522 52.7876 115.876 53.398L117.249 54.852ZM119.746 51.4296C120.309 50.4326 120.688 49.4748 120.688 48.625H118.688C118.688 48.9419 118.524 49.5257 118.004 50.4454L119.746 51.4296ZM120.688 48.625C120.688 48.105 120.536 47.5411 120.071 47.1276C119.628 46.734 119.065 46.625 118.562 46.625V48.625C118.679 48.625 118.744 48.6383 118.771 48.6463C118.794 48.6533 118.775 48.6518 118.742 48.6224C118.726 48.6084 118.712 48.5922 118.7 48.5751C118.689 48.5583 118.683 48.545 118.681 48.5386C118.677 48.5273 118.688 48.5496 118.688 48.625H120.688ZM118.562 46.625C117.89 46.625 117.168 46.8803 116.448 47.2518C115.709 47.6328 114.876 48.1866 113.954 48.8942L115.171 50.4808C116.041 49.8134 116.77 49.3359 117.365 49.0294C117.977 48.7134 118.36 48.625 118.562 48.625V46.625ZM113.948 48.8988C110.98 51.2115 108.072 54.7833 105.206 59.5469L106.919 60.5781C109.719 55.9251 112.478 52.5802 115.177 50.4762L113.948 48.8988ZM105.202 59.5523C102.27 64.4954 100.688 68.5687 100.688 71.6875H102.688C102.688 69.1396 104.022 65.4629 106.923 60.5727L105.202 59.5523ZM100.688 71.6875C100.688 72.8171 101.027 73.8445 101.706 74.7325L103.294 73.5175C102.89 72.9888 102.688 72.3912 102.688 71.6875H100.688ZM101.693 74.715C102.671 76.0541 104.033 76.75 105.688 76.75V74.75C104.676 74.75 103.912 74.3626 103.307 73.535L101.693 74.715ZM105.688 76.75C108.699 76.75 112.043 74.9073 115.672 71.6157L114.328 70.1343C110.791 73.3427 107.926 74.75 105.688 74.75V76.75ZM115.676 71.6117C118.756 68.7854 121.362 65.948 123.489 63.0981L121.886 61.9019C119.846 64.6354 117.328 67.3813 114.324 70.1383L115.676 71.6117ZM123.506 63.0749C124.021 62.342 124.466 61.8438 124.838 61.5381C125.219 61.225 125.431 61.1875 125.5 61.1875V59.1875C124.777 59.1875 124.125 59.5354 123.568 59.9932C123.002 60.4583 122.438 61.1163 121.869 61.9251L123.506 63.0749ZM125.5 61.1875C125.613 61.1875 125.776 61.2247 126.007 61.4815L127.493 60.1435C126.974 59.567 126.304 59.1875 125.5 59.1875V61.1875ZM125.969 61.4372C126.201 61.7271 126.25 61.9301 126.25 62.0625H128.25C128.25 61.3616 127.966 60.7313 127.531 60.1878L125.969 61.4372ZM126.25 62.0625C126.25 62.2521 126.184 62.5835 125.962 63.0927C125.745 63.5901 125.407 64.1966 124.931 64.9181C123.979 66.361 122.53 68.1851 120.565 70.3986L122.06 71.7264C124.053 69.4816 125.573 67.5765 126.6 66.0194C127.114 65.2409 127.518 64.5297 127.796 63.8917C128.069 63.2655 128.25 62.6437 128.25 62.0625H126.25ZM120.569 70.394C114.321 77.3453 108.866 80.5625 104.188 80.5625V82.5625C109.759 82.5625 115.721 78.7797 122.056 71.731L120.569 70.394ZM104.188 80.5625C101.377 80.5625 99.3415 79.5749 97.9304 77.6573L96.3196 78.8427C98.1585 81.3417 100.832 82.5625 104.188 82.5625V80.5625ZM97.9373 77.6668C96.9054 76.2294 96.375 74.5219 96.375 72.5H94.375C94.375 74.8948 95.0113 77.0206 96.3127 78.8332L97.9373 77.6668ZM96.375 72.5C96.375 68.432 98.0626 63.5995 101.597 57.9692L99.903 56.9058C96.2708 62.6921 94.375 67.9014 94.375 72.5H96.375ZM101.595 57.9727C104.996 52.6044 108.914 48.3057 113.342 45.0562L112.158 43.4438C107.503 46.8609 103.421 51.354 99.9053 56.9023L101.595 57.9727ZM113.334 45.062C115.93 43.196 118.055 42.375 119.75 42.375V40.375C117.445 40.375 114.904 41.4706 112.166 43.438L113.334 45.062Z" fill="#200B06" mask="url(#path-1-outside-1_124_2634)"/>
</svg>
