<svg width="234" height="234" viewBox="0 0 234 234" fill="none" xmlns="http://www.w3.org/2000/svg">
<g clip-path="url(#clip0_192_3732)">
<path d="M120.994 134.165L120.995 134.165C123.772 134.184 125.957 133.595 127.68 132.607C129.404 131.62 130.637 130.25 131.537 128.75C133.125 126.101 133.693 123.002 134.089 120.84C134.138 120.573 134.184 120.319 134.23 120.083L134.231 120.076L134.268 119.863L134.271 119.846L134.273 119.828L135.2 111.028L175.078 194.143C175.078 194.144 175.079 194.144 175.079 194.144C177.199 198.612 175.303 203.943 170.825 206.051L170.825 206.051L118.812 230.588L118.81 230.588C114.345 232.709 108.999 230.779 106.877 226.309L61.4575 130.54L61.4574 130.54C60.4395 128.397 60.3147 125.937 61.1102 123.701C61.9057 121.466 63.5563 119.638 65.6992 118.619C65.6993 118.619 65.6995 118.619 65.6997 118.619L105.122 100.022L106.586 118.025L106.589 118.054L106.594 118.082L106.615 118.184C106.619 118.234 106.624 118.312 106.631 118.418C106.717 119.833 107.093 126.022 111.201 130.129C112.58 131.509 113.978 132.515 115.568 133.177C117.158 133.838 118.913 134.145 120.994 134.165Z" fill="black" stroke="white"/>
<path d="M69.0693 51.3484L69.0698 51.3476C72.9919 44.2194 79.8139 31.9743 85.1721 23.3063C87.5592 19.8232 89.9594 13.2706 91.7532 7.64934C92.655 4.82346 93.4098 2.21201 93.9392 0.307228C94.2039 -0.64531 94.4123 -1.4215 94.5546 -1.95985C94.6024 -2.14062 94.6428 -2.29459 94.6753 -2.41943L134.29 -2.033C134.173 -0.407379 134.273 1.9259 134.505 4.60386C134.765 7.61499 135.195 11.1012 135.687 14.5856C136.672 21.5535 137.911 28.5356 138.56 31.7377C139.197 34.9126 139.946 39.993 140.074 45.2923C140.201 50.606 139.702 56.0723 137.889 60.0615L137.889 60.0618C136.019 64.1838 134.848 67.9894 134.144 70.765C133.791 72.1533 133.556 73.285 133.408 74.0714C133.334 74.4646 133.282 74.7716 133.248 74.9811C133.231 75.0859 133.219 75.1664 133.211 75.2211L133.202 75.2837L133.2 75.3002L133.199 75.3047L133.199 75.3061L133.199 75.3065C133.199 75.3066 133.199 75.3067 133.694 75.374L133.199 75.3067L133.196 75.3255L133.195 75.3443L131.142 109.875L131.142 109.875L130.46 121.32C130.458 121.332 130.454 121.349 130.449 121.369C130.437 121.425 130.416 121.509 130.386 121.618C130.327 121.836 130.232 122.15 130.088 122.53C129.801 123.289 129.326 124.3 128.574 125.307C127.081 127.304 124.483 129.309 120.003 129.278C115.572 129.248 113.131 126.81 111.773 124.344C111.09 123.104 110.685 121.861 110.451 120.925C110.335 120.458 110.261 120.07 110.217 119.801C110.195 119.666 110.18 119.562 110.171 119.492C110.167 119.457 110.164 119.43 110.162 119.413L110.16 119.399L108.953 99.0242L108.953 99.0239L107.478 73.9015L107.447 73.3725L106.92 73.4342L105.007 73.6587L104.607 73.7056L104.567 74.1062C104.058 79.2749 101.688 82.5646 99.4529 84.5669C98.3325 85.5707 97.2442 86.2523 96.438 86.682C96.0353 86.8967 95.7039 87.048 95.4755 87.1448C95.3613 87.1932 95.273 87.228 95.2145 87.2502C95.1853 87.2613 95.1635 87.2693 95.1497 87.2743L95.135 87.2795L95.1326 87.2803L95.1322 87.2805L95.132 87.2805L94.5689 87.4724L94.8556 87.9943L100.8 98.8169L82.7441 107.31C82.626 107.127 82.4658 106.878 82.268 106.571C81.8112 105.86 81.1539 104.835 80.3525 103.576C78.7497 101.058 76.5705 97.6051 74.2649 93.8667C69.6455 86.3764 64.545 77.7802 62.5357 73.2368L62.5353 73.2359C60.5716 68.8188 61.1947 65.1702 62.8055 61.7185C63.6169 59.9797 64.6774 58.2956 65.794 56.5846C65.9595 56.3311 66.1262 56.0768 66.2935 55.8218C67.2493 54.3646 68.2227 52.8807 69.0693 51.3484Z" fill="black" stroke="white"/>
<path d="M143.009 90.234C142.705 90.5839 142.451 90.8036 142.278 90.9338C141.865 90.6173 141.348 90.3645 140.818 90.1602C140.136 89.8976 139.383 89.697 138.69 89.5463C137.995 89.3952 137.348 89.292 136.877 89.2265C136.768 89.2114 136.668 89.1983 136.579 89.187L137.583 72.7034L140.637 64.3693L140.65 64.3323L140.657 64.2956L140.658 64.2955L140.658 64.2948L140.658 64.2943L140.658 64.2937L140.659 64.2909C140.659 64.289 140.659 64.2867 140.66 64.2838C140.661 64.2784 140.663 64.2713 140.665 64.2625C140.672 64.2354 140.683 64.1925 140.7 64.1361C140.734 64.0234 140.79 63.8576 140.878 63.6576C141.055 63.2571 141.356 62.7242 141.852 62.2037C142.828 61.1796 144.619 60.1402 147.896 60.3559L147.896 60.3559C149.528 60.461 150.556 60.886 151.2 61.4116C151.84 61.9333 152.15 62.5918 152.279 63.2591C152.409 63.9346 152.352 64.6117 152.255 65.1311C152.207 65.3886 152.151 65.6014 152.108 65.7484C152.086 65.8217 152.067 65.8782 152.054 65.9152C152.048 65.9337 152.043 65.9473 152.04 65.9556L152.037 65.9641L152.037 65.9649C152.037 65.9647 152.085 65.871 152.151 65.7894C152.079 65.8796 152.03 65.9837 152.03 65.9839L152.03 65.9844L152.029 65.9865L152.026 65.9949L152.015 66.028L151.972 66.158L151.804 66.6554L151.195 68.4653C150.685 69.983 149.987 72.0542 149.24 74.2683C147.746 78.6972 146.055 83.6954 145.265 85.9812C144.486 88.2132 143.638 89.5074 143.009 90.234ZM142.759 100.372L142.759 100.372L142.758 100.372L142.758 100.372L142.758 100.372L142.711 100.397L142.67 100.433L135.589 106.565L136.322 93.8773C136.384 93.8673 136.453 93.8571 136.53 93.8476C136.895 93.8021 137.424 93.7715 138.061 93.8348C139.33 93.9608 141.039 94.4599 142.762 95.9799C143.621 96.7367 143.994 97.3797 144.122 97.8892C144.248 98.3879 144.153 98.8123 143.962 99.173C143.766 99.5436 143.469 99.8453 143.206 100.06C143.076 100.165 142.96 100.246 142.878 100.299C142.837 100.325 142.805 100.345 142.784 100.357L142.762 100.37L142.759 100.372Z" fill="black" stroke="white"/>
<path d="M141.609 174.581C139.499 175.608 137.423 176.201 135.383 176.362C133.359 176.477 131.4 176.144 129.507 175.363C127.645 174.568 125.901 173.317 124.277 171.611C122.637 169.874 121.163 167.661 119.853 164.969C118.543 162.278 117.704 159.736 117.334 157.344C116.949 154.921 117.011 152.716 117.519 150.729C118.043 148.696 118.967 146.904 120.292 145.351C121.648 143.784 123.38 142.487 125.491 141.46C128.365 140.061 131.048 139.511 133.54 139.812C136.031 140.113 138.446 141.226 140.783 143.153L136.938 148.428C135.78 147.214 134.473 146.431 133.016 146.081C131.545 145.7 129.907 145.949 128.102 146.827C125.839 147.928 124.407 149.571 123.806 151.755C123.235 153.924 123.619 156.385 124.958 159.137L127.414 164.183C128.768 166.966 130.468 168.787 132.512 169.646C134.572 170.459 136.734 170.315 138.997 169.213C140.801 168.335 142.031 167.132 142.686 165.602C143.372 164.058 143.625 162.441 143.446 160.75L149.761 161.252C149.759 164.203 149.123 166.82 147.851 169.103C146.564 171.356 144.484 173.182 141.609 174.581Z" fill="white"/>
<path d="M105.99 151.63L117.197 174.659C117.897 176.096 118.285 177.515 118.361 178.915C118.468 180.301 118.278 181.622 117.793 182.88C117.339 184.122 116.596 185.278 115.566 186.347C114.535 187.416 113.24 188.33 111.68 189.089C108.714 190.532 106.033 190.891 103.637 190.166C101.226 189.41 99.1667 187.859 97.4578 185.513L102.496 181.643C103.441 182.885 104.452 183.717 105.527 184.14C106.618 184.516 107.791 184.4 109.045 183.79C110.237 183.209 111.037 182.366 111.445 181.26C111.868 180.108 111.7 178.753 110.941 177.193L102.346 159.531L92.2537 164.443L89.8426 159.488L105.99 151.63Z" fill="white"/>
</g>
<defs>
<clipPath id="clip0_192_3732">
<rect width="234" height="234" fill="white"/>
</clipPath>
</defs>
</svg>
