<svg width="396" height="20" viewBox="0 0 396 20" fill="none" xmlns="http://www.w3.org/2000/svg">
<path d="M0.323395 15.958V0.921321H6.78917C8.63653 0.921321 10.1187 1.47983 11.0639 2.42499C11.7942 3.15534 12.2239 4.20791 12.2239 5.38937V5.43233C12.2239 7.92412 10.5054 9.38483 8.14247 9.81445L12.7609 15.958H10.6772L6.31659 10.1152H2.02039V15.958H0.323395ZM2.02039 8.59003H6.6388C8.89431 8.59003 10.5054 7.43006 10.5054 5.49677V5.45381C10.5054 3.60644 9.08763 2.48943 6.66028 2.48943H2.02039V8.59003ZM18.494 11.0818C18.7302 13.4233 20.4487 14.7766 22.4035 14.7766C23.9286 14.7766 25.0027 14.1536 25.9049 13.2084L26.936 14.1321C25.819 15.378 24.4657 16.2158 22.3605 16.2158C19.3102 16.2158 16.8184 13.8744 16.8184 10.4159C16.8184 7.19377 19.0739 4.61605 22.1457 4.61605C25.4323 4.61605 27.3226 7.23673 27.3226 10.5018C27.3226 10.6522 27.3226 10.8241 27.3012 11.0818H18.494ZM18.494 9.75H25.6471C25.4538 7.73079 24.2938 6.01231 22.1028 6.01231C20.191 6.01231 18.7302 7.60191 18.494 9.75ZM37.0277 16.1943C34.364 16.1943 31.7219 14.0892 31.7219 10.4374V10.3944C31.7219 6.76415 34.364 4.61605 37.0277 4.61605C39.0899 4.61605 40.4217 5.73306 41.2809 6.97896V0.276892H42.9349V15.958H41.2809V13.724C40.3787 15.0558 39.0684 16.1943 37.0277 16.1943ZM37.3284 14.7121C39.3906 14.7121 41.3454 12.9722 41.3454 10.4159V10.373C41.3454 7.81672 39.3906 6.09824 37.3284 6.09824C35.1803 6.09824 33.4189 7.68783 33.4189 10.373V10.4159C33.4189 13.0366 35.2233 14.7121 37.3284 14.7121ZM49.7672 11.0818C50.0035 13.4233 51.722 14.7766 53.6768 14.7766C55.2019 14.7766 56.276 14.1536 57.1782 13.2084L58.2093 14.1321C57.0923 15.378 55.739 16.2158 53.6338 16.2158C50.5835 16.2158 48.0917 13.8744 48.0917 10.4159C48.0917 7.19377 50.3472 4.61605 53.419 4.61605C56.7056 4.61605 58.5959 7.23673 58.5959 10.5018C58.5959 10.6522 58.5959 10.8241 58.5744 11.0818H49.7672ZM49.7672 9.75H56.9204C56.7271 7.73079 55.5671 6.01231 53.376 6.01231C51.4642 6.01231 50.0035 7.60191 49.7672 9.75ZM71.5661 2.42499V0.599106H73.4564V2.42499H71.5661ZM64.2625 15.958V6.31305H62.7374V4.87382H64.2625V3.90718C64.2625 2.6398 64.6062 1.67316 65.2292 1.05021C65.7877 0.491702 66.604 0.190968 67.6136 0.190968C68.3869 0.190968 68.9024 0.276892 69.4395 0.470221V1.90945C68.838 1.7376 68.3869 1.63019 67.8284 1.63019C66.5395 1.63019 65.8951 2.40351 65.8951 3.9931V4.8953H69.418V6.31305H65.9166V15.958H64.2625ZM71.695 15.958V4.85234H73.3275V15.958H71.695ZM79.3392 15.958V4.85234H80.9932V6.78563C81.7236 5.58269 82.8835 4.61605 84.7953 4.61605C87.4805 4.61605 89.0486 6.42045 89.0486 9.06261V15.958H87.3945V9.47075C87.3945 7.40858 86.2775 6.11972 84.3228 6.11972C82.4109 6.11972 80.9932 7.51598 80.9932 9.59964V15.958H79.3392ZM94.767 2.42499V0.599106H96.6574V2.42499H94.767ZM94.8744 15.958V4.85234H96.5285V15.958H94.8744ZM102.515 15.958V4.85234H104.169V6.78563C104.9 5.58269 106.059 4.61605 107.971 4.61605C110.656 4.61605 112.225 6.42045 112.225 9.06261V15.958H110.57V9.47075C110.57 7.40858 109.453 6.11972 107.499 6.11972C105.587 6.11972 104.169 7.51598 104.169 9.59964V15.958H102.515ZM122.819 19.4379C120.972 19.4379 119.253 18.9224 117.771 17.8913L118.523 16.6024C119.79 17.5261 121.208 18.0202 122.798 18.0202C125.247 18.0202 126.836 16.6669 126.836 14.0677V12.7573C125.869 14.0462 124.516 15.0988 122.475 15.0988C119.812 15.0988 117.256 13.101 117.256 9.90037V9.85741C117.256 6.61378 119.833 4.61605 122.475 4.61605C124.559 4.61605 125.912 5.64714 126.815 6.85007V4.85234H128.469V14.0247C128.469 15.7432 127.953 17.0535 127.051 17.9557C126.063 18.9439 124.581 19.4379 122.819 19.4379ZM122.798 13.6381C124.903 13.6381 126.879 12.1129 126.879 9.87889V9.83593C126.879 7.55894 124.903 6.07676 122.798 6.07676C120.693 6.07676 118.953 7.53746 118.953 9.81445V9.85741C118.953 12.0914 120.736 13.6381 122.798 13.6381ZM143.331 15.958V0.921321H145.028V15.958H143.331ZM151.3 15.958V4.85234H152.954V6.78563C153.685 5.58269 154.845 4.61605 156.757 4.61605C159.442 4.61605 161.01 6.42045 161.01 9.06261V15.958H159.356V9.47075C159.356 7.40858 158.239 6.11972 156.284 6.11972C154.372 6.11972 152.954 7.51598 152.954 9.59964V15.958H151.3ZM166.234 10.373V8.63299H172.206V10.373H166.234ZM177.881 15.958V0.921321H188.686V2.48943H179.578V7.85968H187.72V9.40631H179.578V15.958H177.881ZM193.997 15.958V0.276892H195.651V15.958H193.997ZM201.681 2.42499V0.599106H203.571V2.42499H201.681ZM201.788 15.958V4.85234H203.443V15.958H201.788ZM214.348 19.4379C212.501 19.4379 210.782 18.9224 209.3 17.8913L210.052 16.6024C211.319 17.5261 212.737 18.0202 214.327 18.0202C216.776 18.0202 218.365 16.6669 218.365 14.0677V12.7573C217.399 14.0462 216.045 15.0988 214.005 15.0988C211.341 15.0988 208.785 13.101 208.785 9.90037V9.85741C208.785 6.61378 211.362 4.61605 214.005 4.61605C216.088 4.61605 217.442 5.64714 218.344 6.85007V4.85234H219.998V14.0247C219.998 15.7432 219.482 17.0535 218.58 17.9557C217.592 18.9439 216.11 19.4379 214.348 19.4379ZM214.327 13.6381C216.432 13.6381 218.408 12.1129 218.408 9.87889V9.83593C218.408 7.55894 216.432 6.07676 214.327 6.07676C212.222 6.07676 210.482 7.53746 210.482 9.81445V9.85741C210.482 12.0914 212.265 13.6381 214.327 13.6381ZM225.842 15.958V0.276892H227.496V6.78563C228.226 5.58269 229.386 4.61605 231.298 4.61605C233.983 4.61605 235.551 6.42045 235.551 9.06261V15.958H233.897V9.47075C233.897 7.40858 232.78 6.11972 230.826 6.11972C228.914 6.11972 227.496 7.51598 227.496 9.59964V15.958H225.842ZM244.943 16.1513C243.16 16.1513 241.807 15.2706 241.807 13.0151V6.31305H240.26V4.85234H241.807V1.50131H243.461V4.85234H246.984V6.31305H243.461V12.8003C243.461 14.1536 244.213 14.6477 245.33 14.6477C245.888 14.6477 246.361 14.5403 246.941 14.261V15.6788C246.361 15.9795 245.738 16.1513 244.943 16.1513ZM260.927 15.958V0.921321H271.796V2.46795H262.624V7.60191H270.83V9.14854H262.624V14.4114H271.904V15.958H260.927ZM276.177 15.958L280.538 10.3085L276.349 4.85234H278.239L281.526 9.14854L284.812 4.85234H286.66L282.449 10.2655L286.831 15.958H284.92L281.483 11.4255L278.024 15.958H276.177ZM291.669 19.395V4.85234H293.323V7.08636C294.226 5.75454 295.536 4.61605 297.577 4.61605C300.24 4.61605 302.882 6.72119 302.882 10.373V10.4159C302.882 14.0462 300.262 16.1943 297.577 16.1943C295.515 16.1943 294.183 15.0773 293.323 13.8314V19.395H291.669ZM297.276 14.7121C299.424 14.7121 301.185 13.1225 301.185 10.4374V10.3944C301.185 7.77375 299.381 6.09824 297.276 6.09824C295.214 6.09824 293.259 7.8382 293.259 10.373V10.4159C293.259 12.9936 295.214 14.7121 297.276 14.7121ZM309.07 11.0818C309.307 13.4233 311.025 14.7766 312.98 14.7766C314.505 14.7766 315.579 14.1536 316.481 13.2084L317.512 14.1321C316.395 15.378 315.042 16.2158 312.937 16.2158C309.887 16.2158 307.395 13.8744 307.395 10.4159C307.395 7.19377 309.65 4.61605 312.722 4.61605C316.009 4.61605 317.899 7.23673 317.899 10.5018C317.899 10.6522 317.899 10.8241 317.878 11.0818H309.07ZM309.07 9.75H316.224C316.03 7.73079 314.87 6.01231 312.679 6.01231C310.767 6.01231 309.307 7.60191 309.07 9.75ZM322.943 15.958V4.85234H324.597V7.75227C325.413 5.90491 327.024 4.57309 329.129 4.65901V6.44193H329C326.573 6.44193 324.597 8.18189 324.597 11.5329V15.958H322.943ZM333.839 2.42499V0.599106H335.73V2.42499H333.839ZM333.947 15.958V4.85234H335.601V15.958H333.947ZM342.576 11.0818C342.812 13.4233 344.53 14.7766 346.485 14.7766C348.01 14.7766 349.084 14.1536 349.987 13.2084L351.018 14.1321C349.901 15.378 348.547 16.2158 346.442 16.2158C343.392 16.2158 340.9 13.8744 340.9 10.4159C340.9 7.19377 343.156 4.61605 346.227 4.61605C349.514 4.61605 351.404 7.23673 351.404 10.5018C351.404 10.6522 351.404 10.8241 351.383 11.0818H342.576ZM342.576 9.75H349.729C349.536 7.73079 348.376 6.01231 346.184 6.01231C344.273 6.01231 342.812 7.60191 342.576 9.75ZM356.448 15.958V4.85234H358.102V6.78563C358.832 5.58269 359.992 4.61605 361.904 4.61605C364.589 4.61605 366.157 6.42045 366.157 9.06261V15.958H364.503V9.47075C364.503 7.40858 363.386 6.11972 361.432 6.11972C359.52 6.11972 358.102 7.51598 358.102 9.59964V15.958H356.448ZM376.838 16.2158C373.594 16.2158 371.146 13.5736 371.146 10.4589V10.4159C371.146 7.27969 373.594 4.61605 376.838 4.61605C378.943 4.61605 380.253 5.49677 381.285 6.5923L380.189 7.75227C379.308 6.82859 378.32 6.07676 376.816 6.07676C374.561 6.07676 372.843 7.98856 372.843 10.373V10.4159C372.843 12.8218 374.604 14.7336 376.924 14.7336C378.342 14.7336 379.437 14.0247 380.318 13.0796L381.37 14.0677C380.253 15.3136 378.922 16.2158 376.838 16.2158ZM386.926 11.0818C387.163 13.4233 388.881 14.7766 390.836 14.7766C392.361 14.7766 393.435 14.1536 394.337 13.2084L395.368 14.1321C394.251 15.378 392.898 16.2158 390.793 16.2158C387.743 16.2158 385.251 13.8744 385.251 10.4159C385.251 7.19377 387.506 4.61605 390.578 4.61605C393.865 4.61605 395.755 7.23673 395.755 10.5018C395.755 10.6522 395.755 10.8241 395.734 11.0818H386.926ZM386.926 9.75H394.079C393.886 7.73079 392.726 6.01231 390.535 6.01231C388.623 6.01231 387.163 7.60191 386.926 9.75Z" fill="#2B2F31"/>
</svg>
