<?xml version="1.0" standalone="no"?><!DOCTYPE svg PUBLIC "-//W3C//DTD SVG 1.1//EN" "http://www.w3.org/Graphics/SVG/1.1/DTD/svg11.dtd"><svg t="1725059229246" class="icon" viewBox="0 0 1024 1024" version="1.1" xmlns="http://www.w3.org/2000/svg" p-id="7273" xmlns:xlink="http://www.w3.org/1999/xlink" width="200" height="200"><path d="M716.544 170.624C773.76 114.432 830.08 57.088 887.168 0.64c0.384 32.384-0.128 64.768-0.384 97.152 17.792 7.808 31.36 20.736 38.016 39.168 32.896 0 65.664-0.256 98.56-0.128-56.448 56.96-113.28 113.28-169.856 170.112-29.312 0.256-58.752 0.512-88.064-0.128-74.112 72.832-147.328 146.56-220.544 220.288 10.368 43.776-24.96 91.392-71.296 87.04-46.72-0.768-80.128-56.192-58.112-97.792 13.184-31.232 48.768-42.368 80.256-38.784 73.216-73.6 147.072-146.816 220.288-220.544-0.384-28.8 0.128-57.6 0.512-86.4z" fill="#487CB0" p-id="7274"></path><path d="M243.456 129.536c129.664-74.24 293.632-79.872 429.824-19.584-17.408 17.792-34.944 35.456-52.608 53.12-68.224-22.912-141.568-32.512-212.864-19.2-143.616 23.296-269.568 129.92-316.16 267.776-51.072 141.568-13.952 309.12 91.136 416.512 128.896 138.624 356.736 166.016 514.432 61.184 160.128-97.792 230.784-311.936 163.456-486.656 17.664-17.536 35.328-35.072 53.12-52.48 41.344 94.592 53.12 202.24 29.312 302.976-38.016 173.056-181.248 316.928-353.92 356.48-155.264 38.272-328.064-7.936-442.624-119.68C63.232 811.648 13.312 702.592 0 589.696v-84.48c14.464-155.008 106.496-300.544 243.456-375.68z" fill="#487CB0" p-id="7275"></path><path d="M267.648 370.816c74.112-91.648 208.896-122.88 316.928-77.056-18.176 18.432-36.736 36.48-55.424 54.4-116.224-33.152-246.272 56.192-254.464 177.152-16.768 123.392 100.224 239.872 223.616 222.72 120.704-8.064 210.176-138.112 176.64-254.08 17.792-18.432 35.712-36.48 53.888-54.272 37.12 84.352 25.856 187.264-27.648 262.272-50.432 73.088-138.496 118.144-227.456 116.096-101.12-0.128-198.784-62.08-241.92-153.472-46.72-93.952-32.256-214.016 35.84-293.76z" fill="#487CB0" p-id="7276"></path></svg>